<?xml version="1.0" encoding="UTF-8"?>
<!DOCTYPE svg PUBLIC "-//W3C//DTD SVG 1.1//EN"
    "http://www.w3.org/Graphics/SVG/1.1/DTD/svg11.dtd">
<svg stroke="rgb(0,0,0)" xmlns="http://www.w3.org/2000/svg" font-size="1" width="600.0000" stroke-opacity="1" xmlns:xlink="http://www.w3.org/1999/xlink" viewBox="0.0 0.0 600.0 40.0" height="40.0000" version="1.1">
  <defs>
  </defs>
  <defs>
    <linearGradient gradientTransform="matrix(2.0000,-0.0000,0.0000,-2.0000,300.0000,20.0000)" y1="-8.0000" spreadMethod="pad" id="gradient0" x1="0.0000" y2="8.0000" gradientUnits="userSpaceOnUse" x2="0.0000">
      <stop stop-color="rgb(51,75,27)" stop-opacity="1.0000" offset="0.0000"/>
      <stop stop-color="rgb(142,167,115)" stop-opacity="1.0000" offset="1.0000"/>
    </linearGradient>
  </defs>
  <g fill="url(#gradient0)" stroke="rgb(0,0,0)" stroke-linecap="butt" stroke-width="0.6196773353931867" stroke-miterlimit="10.0" fill-opacity="1" stroke-opacity="1.0" stroke-linejoin="miter">
    <path d="M 600.0000,24.0000 v -8.0000 c 0.0000,-8.8366 -7.1634,-16.0000 -16.0000 -16.0000h -568.0000 c -8.8366,-0.0000 -16.0000,7.1634 -16.0000 16.0000v 8.0000 c -0.0000,8.8366 7.1634,16.0000 16.0000 16.0000h 568.0000 c 8.8366,0.0000 16.0000,-7.1634 16.0000 -16.0000Z"/>
  </g>
  <g fill="rgb(255,255,255)" stroke="rgb(255,255,255)" stroke-linecap="butt" stroke-width="0.6196773353931867" font-size="24.0px" stroke-miterlimit="10.0" fill-opacity="1.0" stroke-opacity="1.0" stroke-linejoin="miter">
    <path d="M 294.3379,23.4932 ZM 294.8037,25.6941 l 1.1233,-1.1781 c 1.0228,1.1233 2.6301,1.1233 2.6301 1.1233c 1.4612,-0.0000 2.3973,-1.0228 2.3973 -1.0228c 0.9361,-1.0228 0.9361,-2.6301 0.9361 -2.6301c 0.0000,-2.5479 -3.5160,-2.5479 -3.5160 -2.5479c -0.6575,-0.0000 -1.4703,0.1461 -1.4703 0.1461l 1.1963,-6.0091 h 7.0959 l -0.6210,1.5799 h -5.9543 l -0.8037,2.8128 c 0.6849,-0.1187 1.2146,-0.1187 1.2146 -0.1187c 2.0639,-0.0000 3.3516,0.9680 3.3516 0.9680c 1.2877,0.9680 1.2877,2.5297 1.2877 2.5297c 0.0000,1.9361 -1.8174,3.5068 -1.8174 3.5068c -1.8174,1.5708 -4.0639,1.5708 -4.0639 1.5708c -1.4612,-0.0000 -2.9863,-0.7306 -2.9863 -0.7306Z"/>
  </g>
</svg>