<?xml version="1.0" encoding="UTF-8"?>
<!DOCTYPE svg PUBLIC "-//W3C//DTD SVG 1.1//EN"
    "http://www.w3.org/Graphics/SVG/1.1/DTD/svg11.dtd">
<svg stroke="rgb(0,0,0)" xmlns="http://www.w3.org/2000/svg" font-size="1" width="600.0000" stroke-opacity="1" xmlns:xlink="http://www.w3.org/1999/xlink" viewBox="0.0 0.0 600.0 40.0" height="40.0000" version="1.1">
  <defs>
  </defs>
  <defs>
    <linearGradient gradientTransform="matrix(2.0000,-0.0000,0.0000,-2.0000,300.0000,20.0000)" y1="-8.0000" spreadMethod="pad" id="gradient0" x1="0.0000" y2="8.0000" gradientUnits="userSpaceOnUse" x2="0.0000">
      <stop stop-color="rgb(51,75,27)" stop-opacity="1.0000" offset="0.0000"/>
      <stop stop-color="rgb(142,167,115)" stop-opacity="1.0000" offset="1.0000"/>
    </linearGradient>
  </defs>
  <g fill="url(#gradient0)" stroke="rgb(0,0,0)" stroke-linecap="butt" stroke-width="0.6196773353931867" stroke-miterlimit="10.0" fill-opacity="1" stroke-opacity="1.0" stroke-linejoin="miter">
    <path d="M 600.0000,24.0000 v -8.0000 c 0.0000,-8.8366 -7.1634,-16.0000 -16.0000 -16.0000h -568.0000 c -8.8366,-0.0000 -16.0000,7.1634 -16.0000 16.0000v 8.0000 c -0.0000,8.8366 7.1634,16.0000 16.0000 16.0000h 568.0000 c 8.8366,0.0000 16.0000,-7.1634 16.0000 -16.0000Z"/>
  </g>
  <g fill="rgb(255,255,255)" stroke="rgb(255,255,255)" stroke-linecap="butt" stroke-width="0.6196773353931867" font-size="24.0px" stroke-miterlimit="10.0" fill-opacity="1.0" stroke-opacity="1.0" stroke-linejoin="miter">
    <path d="M 31.6530,20.0000 ZM 32.0000,22.2100 l 1.1963,-1.2146 c 1.3881,1.2603 2.8311,1.2603 2.8311 1.2603c 1.1963,-0.0000 2.0548,-0.8311 2.0548 -0.8311c 0.8584,-0.8311 0.8584,-1.9817 0.8584 -1.9817c 0.0000,-1.2603 -1.0411,-2.0502 -1.0411 -2.0502c -1.0411,-0.7900 -2.7032,-0.7900 -2.7032 -0.7900c -0.2922,-0.0000 -0.7580,0.0548 -0.7580 0.0548l 0.6393,-1.4064 c 0.8311,-0.0000 1.5982,0.0639 1.5982 0.0639c 1.2968,-0.3196 2.1553,-1.1735 2.1553 -1.1735c 0.8584,-0.8539 0.8584,-1.8037 0.8584 -1.8037c 0.0000,-0.8402 -0.5753,-1.3790 -0.5753 -1.3790c -0.5753,-0.5388 -1.4795,-0.5388 -1.4795 -0.5388c -2.0822,-0.0000 -2.6119,2.0274 -2.6119 2.0274h -0.5662 l 0.3014,-2.0457 c 1.9726,-0.5388 3.3973,-0.5388 3.3973 -0.5388c 1.4977,-0.0000 2.4064,0.5708 2.4064 0.5708c 0.9087,0.5708 0.9087,1.5114 0.9087 1.5114c 0.0000,2.0183 -3.7260,3.5525 -3.7260 3.5525c 2.8311,0.8767 2.8311,3.2055 2.8311 3.2055c 0.0000,1.6895 -1.5662,2.9589 -1.5662 2.9589c -1.5662,1.2694 -3.6667,1.2694 -3.6667 1.2694c -1.7352,-0.0000 -3.3425,-0.7215 -3.3425 -0.7215Z"/>
  </g>
</svg>