<?xml version="1.0" encoding="UTF-8"?>
<!DOCTYPE svg PUBLIC "-//W3C//DTD SVG 1.1//EN"
    "http://www.w3.org/Graphics/SVG/1.1/DTD/svg11.dtd">
<svg stroke="rgb(0,0,0)" xmlns="http://www.w3.org/2000/svg" font-size="1" width="600.0000" stroke-opacity="1" xmlns:xlink="http://www.w3.org/1999/xlink" viewBox="0.0 0.0 600.0 40.0" height="40.0000" version="1.1">
  <defs>
  </defs>
  <defs>
    <linearGradient gradientTransform="matrix(2.0000,-0.0000,0.0000,-2.0000,300.0000,20.0000)" y1="-8.0000" spreadMethod="pad" id="gradient0" x1="0.0000" y2="8.0000" gradientUnits="userSpaceOnUse" x2="0.0000">
      <stop stop-color="rgb(51,75,27)" stop-opacity="1.0000" offset="0.0000"/>
      <stop stop-color="rgb(142,167,115)" stop-opacity="1.0000" offset="1.0000"/>
    </linearGradient>
  </defs>
  <g fill="url(#gradient0)" stroke="rgb(0,0,0)" stroke-linecap="butt" stroke-width="0.6196773353931867" stroke-miterlimit="10.0" fill-opacity="1" stroke-opacity="1.0" stroke-linejoin="miter">
    <path d="M 600.0000,24.0000 v -8.0000 c 0.0000,-8.8366 -7.1634,-16.0000 -16.0000 -16.0000h -568.0000 c -8.8366,-0.0000 -16.0000,7.1634 -16.0000 16.0000v 8.0000 c -0.0000,8.8366 7.1634,16.0000 16.0000 16.0000h 568.0000 c 8.8366,0.0000 16.0000,-7.1634 16.0000 -16.0000Z"/>
  </g>
  <g fill="rgb(255,255,255)" stroke="rgb(255,255,255)" stroke-linecap="butt" stroke-width="0.6196773353931867" font-size="24.0px" stroke-miterlimit="10.0" fill-opacity="1.0" stroke-opacity="1.0" stroke-linejoin="miter">
    <path d="M 292.7443,26.3059 ZM 304.4977,15.9406 h -0.5662 c 0.0548,-0.3105 0.0548,-0.4658 0.0548 -0.4658c 0.0000,-0.5845 -0.5479,-0.9589 -0.5479 -0.9589c -0.5479,-0.3744 -1.4155,-0.3744 -1.4155 -0.3744c -1.7352,-0.0000 -3.2146,1.8584 -3.2146 1.8584c -1.4795,1.8584 -1.7534,4.3790 -1.7534 4.3790c 1.8174,-2.4110 4.0091,-2.4110 4.0091 -2.4110c 1.2785,-0.0000 2.1279,0.8584 2.1279 0.8584c 0.8493,0.8584 0.8493,2.1553 0.8493 2.1553c 0.0000,2.1735 -1.5753,3.8630 -1.5753 3.8630c -1.5753,1.6895 -3.6210,1.6895 -3.6210 1.6895c -1.7717,-0.0000 -2.8174,-1.2283 -2.8174 -1.2283c -1.0457,-1.2283 -1.0457,-3.3105 -1.0457 -3.3105c 0.0000,-3.3607 2.3014,-5.9452 2.3014 -5.9452c 2.3014,-2.5845 5.2877,-2.5845 5.2877 -2.5845c 1.1233,-0.0000 2.4475,0.5388 2.4475 0.5388ZM 304.4977,15.9406 ZM 299.3653,25.9680 c 1.2237,-0.0000 2.1050,-1.2557 2.1050 -1.2557c 0.8813,-1.2557 0.8813,-3.0091 0.8813 -3.0091c 0.0000,-2.8311 -2.1279,-2.8311 -2.1279 -2.8311c -1.3699,-0.0000 -2.3562,1.1461 -2.3562 1.1461c -0.9863,1.1461 -0.9863,2.7352 -0.9863 2.7352c 0.0000,1.4064 0.6986,2.3105 0.6986 2.3105c 0.6986,0.9041 1.7854,0.9041 1.7854 0.9041Z"/>
  </g>
</svg>