<?xml version="1.0" encoding="UTF-8"?>
<!DOCTYPE svg PUBLIC "-//W3C//DTD SVG 1.1//EN"
    "http://www.w3.org/Graphics/SVG/1.1/DTD/svg11.dtd">
<svg stroke="rgb(0,0,0)" xmlns="http://www.w3.org/2000/svg" font-size="1" width="600.0000" stroke-opacity="1" xmlns:xlink="http://www.w3.org/1999/xlink" viewBox="0.0 0.0 600.0 40.0" height="40.0000" version="1.1">
  <defs>
  </defs>
  <defs>
    <linearGradient gradientTransform="matrix(2.0000,-0.0000,0.0000,-2.0000,300.0000,20.0000)" y1="-8.0000" spreadMethod="pad" id="gradient0" x1="0.0000" y2="8.0000" gradientUnits="userSpaceOnUse" x2="0.0000">
      <stop stop-color="rgb(51,75,27)" stop-opacity="1.0000" offset="0.0000"/>
      <stop stop-color="rgb(142,167,115)" stop-opacity="1.0000" offset="1.0000"/>
    </linearGradient>
  </defs>
  <g fill="url(#gradient0)" stroke="rgb(0,0,0)" stroke-linecap="butt" stroke-width="0.6196773353931867" stroke-miterlimit="10.0" fill-opacity="1" stroke-opacity="1.0" stroke-linejoin="miter">
    <path d="M 600.0000,24.0000 v -8.0000 c 0.0000,-8.8366 -7.1634,-16.0000 -16.0000 -16.0000h -568.0000 c -8.8366,-0.0000 -16.0000,7.1634 -16.0000 16.0000v 8.0000 c -0.0000,8.8366 7.1634,16.0000 16.0000 16.0000h 568.0000 c 8.8366,0.0000 16.0000,-7.1634 16.0000 -16.0000Z"/>
  </g>
  <g fill="rgb(255,255,255)" stroke="rgb(255,255,255)" stroke-linecap="butt" stroke-width="0.6196773353931867" font-size="24.0px" stroke-miterlimit="10.0" fill-opacity="1.0" stroke-opacity="1.0" stroke-linejoin="miter">
    <path d="M 30.8767,20.0000 ZM 32.0000,20.0000 l 0.4932,-1.4612 c 6.8676,-3.6712 6.8676,-6.1918 6.8676 -6.1918c 0.0000,-0.8128 -0.5799,-1.3699 -0.5799 -1.3699c -0.5799,-0.5571 -1.4292,-0.5571 -1.4292 -0.5571c -2.2009,-0.0000 -2.7763,2.0274 -2.7763 2.0274h -0.5571 l 0.2831,-2.0913 c 1.9269,-0.4932 3.2968,-0.4932 3.2968 -0.4932c 1.6986,-0.0000 2.6986,0.6438 2.6986 0.6438c 1.0000,0.6438 1.0000,1.7306 1.0000 1.7306c 0.0000,1.1689 -0.9406,2.0365 -0.9406 2.0365c -0.9406,0.8676 -4.4932,2.9680 -4.4932 2.9680l -2.2100,1.2968 h 6.8950 l -0.5753,1.4612 h -7.9726 Z"/>
  </g>
</svg>