<?xml version="1.0" encoding="UTF-8"?>
<!DOCTYPE svg PUBLIC "-//W3C//DTD SVG 1.1//EN"
    "http://www.w3.org/Graphics/SVG/1.1/DTD/svg11.dtd">
<svg stroke="rgb(0,0,0)" xmlns="http://www.w3.org/2000/svg" font-size="1" width="600.0000" stroke-opacity="1" xmlns:xlink="http://www.w3.org/1999/xlink" viewBox="0.0 0.0 600.0 40.0" height="40.0000" version="1.1">
  <defs>
  </defs>
  <defs>
    <linearGradient gradientTransform="matrix(2.0000,-0.0000,0.0000,-2.0000,300.0000,20.0000)" y1="-8.0000" spreadMethod="pad" id="gradient0" x1="0.0000" y2="8.0000" gradientUnits="userSpaceOnUse" x2="0.0000">
      <stop stop-color="rgb(87,18,40)" stop-opacity="1.0000" offset="0.0000"/>
      <stop stop-color="rgb(181,105,130)" stop-opacity="1.0000" offset="1.0000"/>
    </linearGradient>
  </defs>
  <g fill="url(#gradient0)" stroke="rgb(0,0,0)" stroke-linecap="butt" stroke-width="0.6196773353931867" stroke-miterlimit="10.0" fill-opacity="1" stroke-opacity="1.0" stroke-linejoin="miter">
    <path d="M 600.0000,24.0000 v -8.0000 c 0.0000,-8.8366 -7.1634,-16.0000 -16.0000 -16.0000h -568.0000 c -8.8366,-0.0000 -16.0000,7.1634 -16.0000 16.0000v 8.0000 c -0.0000,8.8366 7.1634,16.0000 16.0000 16.0000h 568.0000 c 8.8366,0.0000 16.0000,-7.1634 16.0000 -16.0000Z"/>
  </g>
  <g fill="rgb(255,255,255)" stroke="rgb(255,255,255)" stroke-linecap="butt" stroke-width="0.6196773353931867" font-size="24.0px" stroke-miterlimit="10.0" fill-opacity="1.0" stroke-opacity="1.0" stroke-linejoin="miter">
    <path d="M 198.5708,27.7900 ZM 200.4886,27.7900 l 1.3425,-1.3516 h 0.1918 c 1.3699,-0.0000 1.8904,-0.6256 1.8904 -0.6256c 0.5205,-0.6256 0.9589,-2.7991 0.9589 -2.7991l 1.5982,-8.0274 c -1.8813,-0.0000 -3.0411,1.0091 -3.0411 1.0091c -1.1598,1.0091 -1.1598,2.6347 -1.1598 2.6347v 0.2009 l -1.7717,0.8584 c 0.2283,-2.7945 2.1735,-4.1050 2.1735 -4.1050c 1.9452,-1.3105 5.8539,-1.3105 5.8539 -1.3105c 2.7580,-0.0000 3.9406,0.5936 3.9406 0.5936c 1.1826,0.5936 1.1826,1.9726 1.1826 1.9726c 0.0000,2.7854 -4.2009,3.8904 -4.2009 3.8904c 3.5251,1.1324 3.5251,3.1050 3.5251 3.1050c 0.0000,1.7626 -1.9269,2.9726 -1.9269 2.9726c -1.9269,1.2100 -4.7397,1.2100 -4.7397 1.2100l -2.1644,-0.0731 ZM 200.4886,27.7900 ZM 207.2831,20.5205 h 0.4749 c 1.6895,-0.0000 2.7945,-1.0000 2.7945 -1.0000c 1.1050,-1.0000 1.1050,-2.5342 1.1050 -2.5342c 0.0000,-2.1553 -3.0137,-2.1553 -3.0137 -2.1553h -0.2283 ZM 207.2831,20.5205 ZM 203.8858,26.6027 l 0.9498,0.2100 c 1.3973,0.3014 2.9406,0.3014 2.9406 0.3014c 3.1416,-0.0000 3.1416,-2.9315 3.1416 -2.9315c 0.0000,-1.4338 -0.9361,-2.2603 -0.9361 -2.2603c -0.9361,-0.8265 -2.5525,-0.8265 -2.5525 -0.8265h -0.2648 l -0.2009,1.0228 c -0.6027,2.9954 -3.0776,4.4840 -3.0776 4.4840ZM 213.2648,27.7900 ZM 222.2511,22.8311 h -0.1644 c -1.0320,2.2922 -2.4840,3.7397 -2.4840 3.7397c -1.4521,1.4475 -2.7215,1.4475 -2.7215 1.4475c -1.9269,-0.0000 -1.9269,-2.4110 -1.9269 -2.4110c 0.0000,-2.6575 2.1187,-5.2055 2.1187 -5.2055c 2.1918,-2.6393 5.3516,-2.6393 5.3516 -2.6393c 1.3059,-0.0000 2.7306,0.1096 2.7306 0.1096l -0.6575,2.7032 l -0.8858,4.5114 c -0.2100,1.0594 -0.2100,1.3699 -0.2100 1.3699c 0.0000,0.5753 0.5388,0.5753 0.5388 0.5753c 0.9132,-0.0000 2.7215,-2.0091 2.7215 -2.0091l -0.1644,0.8493 c -2.0000,2.1461 -3.5890,2.1461 -3.5890 2.1461c -1.3242,-0.0000 -1.3242,-1.3790 -1.3242 -1.3790c 0.0000,-0.4566 0.2192,-1.5525 0.2192 -1.5525ZM 222.2511,22.8311 ZM 222.9817,19.1781 c -1.1507,-0.5114 -2.2740,-0.5114 -2.2740 -0.5114c -1.6621,-0.0000 -2.6575,2.1005 -2.6575 2.1005c -1.1689,2.4840 -1.1689,4.4658 -1.1689 4.4658c 0.0000,1.4338 0.8402,1.4338 0.8402 1.4338c 0.7854,-0.0000 2.2603,-1.6484 2.2603 -1.6484c 1.4749,-1.6484 2.5890,-3.7671 2.5890 -3.7671ZM 225.7671,27.7900 ZM 235.5845,25.2785 l -0.1370,0.7123 c -2.9954,2.0274 -4.9132,2.0274 -4.9132 2.0274c -1.3242,-0.0000 -2.1279,-0.8950 -2.1279 -0.8950c -0.8037,-0.8950 -0.8037,-2.3653 -0.8037 -2.3653c 0.0000,-2.6575 2.0091,-4.8813 2.0091 -4.8813c 2.0091,-2.2237 4.4201,-2.2237 4.4201 -2.2237c 1.0594,-0.0000 2.1096,0.4658 2.1096 0.4658l -0.6119,2.3470 h -0.5662 l 0.0274,-0.1370 c 0.0913,-0.4292 0.0913,-0.6301 0.0913 -0.6301c 0.0000,-1.2603 -1.7078,-1.2603 -1.7078 -1.2603c -1.6073,-0.0000 -2.6758,1.7169 -2.6758 1.7169c -1.0685,1.7169 -1.0685,4.3105 -1.0685 4.3105c 0.0000,2.4749 1.8447,2.4749 1.8447 2.4749c 1.7534,-0.0000 4.1096,-1.6621 4.1096 -1.6621ZM 235.9863,27.7900 ZM 237.6301,27.8995 l 0.6758,-2.8128 l 1.2511,-6.3105 c 0.6575,-3.3059 2.4795,-5.1461 2.4795 -5.1461c 1.8219,-1.8402 4.4338,-1.8402 4.4338 -1.8402c 0.9041,-0.0000 1.6438,0.1918 1.6438 0.1918l -1.2511,1.3059 c -1.0685,-0.4840 -1.8265,-0.4840 -1.8265 -0.4840c -1.2146,-0.0000 -2.0000,0.8311 -2.0000 0.8311c -0.4566,0.4840 -0.7169,1.2146 -0.7169 1.2146c -0.2603,0.7306 -0.7808,3.0228 -0.7808 3.0228l -0.9041,3.9909 h 0.1096 c 0.8584,-1.8813 2.2603,-3.0457 2.2603 -3.0457c 1.4018,-1.1644 2.7991,-1.1644 2.7991 -1.1644c 1.5434,-0.0000 1.5434,1.4886 1.5434 1.4886c 0.0000,1.5525 -1.2603,2.6027 -1.2603 2.6027c -1.2603,1.0502 -3.5890,1.4338 -3.5890 1.4338c 2.5936,3.5982 3.8447,3.5982 3.8447 3.5982c 0.7945,-0.0000 1.9817,-1.1050 1.9817 -1.1050l -0.1279,0.6484 c -1.8174,1.6986 -2.9041,1.6986 -2.9041 1.6986c -0.8767,-0.0000 -1.7671,-0.8630 -1.7671 -0.8630c -0.8904,-0.8630 -3.0731,-3.8128 -3.0731 -3.8128l -0.8858,4.4475 ZM 237.6301,27.8995 ZM 240.5525,22.8311 l -0.0183,0.1187 h 0.3105 c 1.9178,-0.0000 3.3151,-1.0411 3.3151 -1.0411c 1.3973,-1.0411 1.3973,-2.4566 1.3973 -2.4566c 0.0000,-0.8950 -0.7123,-0.8950 -0.7123 -0.8950c -1.5434,-0.0000 -4.2922,4.2740 -4.2922 4.2740ZM 254.0046,27.7900 ZM 258.1598,18.5479 h -2.0913 l 0.6301,-0.6758 h 1.5890 l 0.5205,-2.5845 l 1.8904,-0.4566 l -0.6027,3.0411 h 3.4429 l -0.7489,0.8037 c -1.1781,-0.1279 -2.0913,-0.1279 -2.0913 -0.1279h -0.7397 l -1.2420,6.2557 c -0.1918,0.9680 -0.1918,1.3607 -0.1918 1.3607c 0.0000,0.7215 0.6393,0.7215 0.6393 0.7215c 0.9863,-0.0000 2.6941,-1.4612 2.6941 -1.4612l -0.1644,0.8402 c -1.7717,1.7534 -3.4064,1.7534 -3.4064 1.7534c -1.5525,-0.0000 -1.5525,-1.7169 -1.5525 -1.7169c 0.0000,-0.6119 0.2009,-1.6256 0.2009 -1.6256ZM 262.5251,27.7900 ZM 267.1553,28.0183 c -1.1963,-0.0000 -1.9954,-0.9361 -1.9954 -0.9361c -0.7991,-0.9361 -0.7991,-2.3333 -0.7991 -2.3333c 0.0000,-2.6301 1.9909,-4.8630 1.9909 -4.8630c 1.9909,-2.2329 4.3379,-2.2329 4.3379 -2.2329c 1.2694,-0.0000 2.0913,0.9132 2.0913 0.9132c 0.8219,0.9132 0.8219,2.3288 0.8219 2.3288c 0.0000,2.7306 -1.9909,4.9269 -1.9909 4.9269c -1.9909,2.1963 -4.4566,2.1963 -4.4566 2.1963ZM 267.1553,28.0183 ZM 268.1963,27.2237 c 1.3516,-0.0000 2.3790,-1.7397 2.3790 -1.7397c 1.0274,-1.7397 1.0274,-4.0411 1.0274 -4.0411c 0.0000,-3.0228 -1.8447,-3.0228 -1.8447 -3.0228c -1.3059,-0.0000 -2.3516,1.7945 -2.3516 1.7945c -1.0457,1.7945 -1.0457,4.0411 -1.0457 4.0411c 0.0000,2.9680 1.8356,2.9680 1.8356 2.9680ZM 279.6301,27.7900 ZM 280.3607,26.9498 l 1.3059,-1.3425 c 0.9224,1.5160 2.5662,1.5160 2.5662 1.5160c 1.0776,-0.0000 1.9087,-0.9132 1.9087 -0.9132c 0.8311,-0.9132 1.1324,-2.4201 1.1324 -2.4201l 1.7260,-8.6758 c -0.4658,-0.0731 -0.6484,-0.0731 -0.6484 -0.0731c -1.5068,-0.0000 -2.5114,1.0731 -2.5114 1.0731c -1.0046,1.0731 -1.0046,2.6712 -1.0046 2.6712l -1.7717,0.8676 c 0.1918,-2.5479 2.0365,-3.9635 2.0365 -3.9635c 1.8447,-1.4155 4.9589,-1.4155 4.9589 -1.4155h 0.7397 c 1.6895,4.7032 2.4658,9.6712 2.4658 9.6712l 5.9909,-9.6712 l 1.9543,-0.2283 l -0.6941,2.9315 l -1.4886,7.4612 c -0.1918,0.9954 -0.1918,1.5890 -0.1918 1.5890c 0.0000,0.8037 0.9772,0.8037 0.9772 0.8037c 0.4840,-0.0000 1.2968,-0.1005 1.2968 -0.1005l -0.1187,0.5845 l -4.5114,0.8950 l 2.3653,-11.8904 l -6.2466,10.0091 l -0.9406,0.1461 v -0.2648 c 0.0000,-3.5708 -1.7443,-8.8676 -1.7443 -8.8676l -0.7489,3.7260 c -1.3699,6.8950 -5.9726,6.8950 -5.9726 6.8950c -1.6073,-0.0000 -2.8311,-1.0137 -2.8311 -1.0137ZM 301.3014,27.7900 ZM 310.2877,22.8311 h -0.1644 c -1.0320,2.2922 -2.4840,3.7397 -2.4840 3.7397c -1.4521,1.4475 -2.7215,1.4475 -2.7215 1.4475c -1.9269,-0.0000 -1.9269,-2.4110 -1.9269 -2.4110c 0.0000,-2.6575 2.1187,-5.2055 2.1187 -5.2055c 2.1918,-2.6393 5.3516,-2.6393 5.3516 -2.6393c 1.3059,-0.0000 2.7306,0.1096 2.7306 0.1096l -0.6575,2.7032 l -0.8858,4.5114 c -0.2100,1.0594 -0.2100,1.3699 -0.2100 1.3699c 0.0000,0.5753 0.5388,0.5753 0.5388 0.5753c 0.9132,-0.0000 2.7215,-2.0091 2.7215 -2.0091l -0.1644,0.8493 c -2.0000,2.1461 -3.5890,2.1461 -3.5890 2.1461c -1.3242,-0.0000 -1.3242,-1.3790 -1.3242 -1.3790c 0.0000,-0.4566 0.2192,-1.5525 0.2192 -1.5525ZM 310.2877,22.8311 ZM 311.0183,19.1781 c -1.1507,-0.5114 -2.2740,-0.5114 -2.2740 -0.5114c -1.6621,-0.0000 -2.6575,2.1005 -2.6575 2.1005c -1.1689,2.4840 -1.1689,4.4658 -1.1689 4.4658c 0.0000,1.4338 0.8402,1.4338 0.8402 1.4338c 0.7854,-0.0000 2.2603,-1.6484 2.2603 -1.6484c 1.4749,-1.6484 2.5890,-3.7671 2.5890 -3.7671ZM 313.8037,27.7900 ZM 321.8950,25.0228 l -0.1644,0.8493 c -2.0000,2.1461 -3.5890,2.1461 -3.5890 2.1461c -1.3151,-0.0000 -1.3151,-1.3790 -1.3151 -1.3790c 0.0000,-0.4658 0.2100,-1.5342 0.2100 -1.5342l 0.6301,-3.1781 c 0.2557,-1.3516 0.2557,-1.7991 0.2557 -1.7991c 0.0000,-0.7671 -0.5936,-0.7671 -0.5936 -0.7671c -0.4110,-0.0000 -1.4703,0.3196 -1.4703 0.3196l 0.1096,-0.5662 l 4.4658,-1.4612 l -0.6941,2.9224 l -0.8950,4.5114 c -0.2100,1.0594 -0.2100,1.3516 -0.2100 1.3516c 0.0000,0.5936 0.5388,0.5936 0.5388 0.5936c 0.9041,-0.0000 2.7215,-2.0091 2.7215 -2.0091ZM 321.8950,25.0228 ZM 318.5434,16.0639 l 0.6119,-1.2420 l 2.5753,-1.6804 l -0.7854,1.6804 ZM 320.8447,27.7900 ZM 323.3014,27.8995 l 0.6758,-2.8128 l 0.8950,-4.5114 c 0.2100,-1.0502 0.2100,-1.3699 0.2100 -1.3699c 0.0000,-0.5662 -0.5388,-0.5662 -0.5388 -0.5662c -0.8950,-0.0000 -2.7215,2.0000 -2.7215 2.0000l 0.1644,-0.8402 c 1.9909,-2.1461 3.5890,-2.1461 3.5890 -2.1461c 1.3151,-0.0000 1.3151,1.3699 1.3151 1.3699c 0.0000,0.4658 -0.2100,1.5525 -0.2100 1.5525l -0.4475,2.2557 h 0.1370 c 1.1416,-2.3379 2.5799,-3.7580 2.5799 -3.7580c 1.4384,-1.4201 2.6804,-1.4201 2.6804 -1.4201c 1.4977,-0.0000 1.4977,1.6621 1.4977 1.6621c 0.0000,0.5388 -0.1553,1.3151 -0.1553 1.3151l -0.8858,4.4566 c -0.2100,1.0594 -0.2100,1.3699 -0.2100 1.3699c 0.0000,0.5753 0.5388,0.5753 0.5388 0.5753c 0.9132,-0.0000 2.7306,-2.0091 2.7306 -2.0091l -0.1735,0.8493 c -1.9909,2.1461 -3.5890,2.1461 -3.5890 2.1461c -1.3151,-0.0000 -1.3151,-1.3790 -1.3151 -1.3790c 0.0000,-0.4566 0.2192,-1.5525 0.2192 -1.5525l 0.8858,-4.4749 c 0.1096,-0.5205 0.1096,-0.8767 0.1096 -0.8767c 0.0000,-0.7397 -0.5479,-0.7397 -0.5479 -0.7397c -1.7443,-0.0000 -4.8402,5.5342 -4.8402 5.5342l -0.6667,3.2603 ZM 340.3516,27.7900 ZM 341.0822,26.9498 l 1.3059,-1.3425 c 0.9224,1.5160 2.5662,1.5160 2.5662 1.5160c 1.0776,-0.0000 1.9087,-0.9132 1.9087 -0.9132c 0.8311,-0.9132 1.1324,-2.4201 1.1324 -2.4201l 1.7260,-8.6758 c -0.4658,-0.0731 -0.6484,-0.0731 -0.6484 -0.0731c -1.5068,-0.0000 -2.5114,1.0731 -2.5114 1.0731c -1.0046,1.0731 -1.0046,2.6712 -1.0046 2.6712l -1.7717,0.8676 c 0.1918,-2.5479 2.0365,-3.9635 2.0365 -3.9635c 1.8447,-1.4155 4.9589,-1.4155 4.9589 -1.4155h 0.7397 c 1.6895,4.7032 2.4658,9.6712 2.4658 9.6712l 5.9909,-9.6712 l 1.9543,-0.2283 l -0.6941,2.9315 l -1.4886,7.4612 c -0.1918,0.9954 -0.1918,1.5890 -0.1918 1.5890c 0.0000,0.8037 0.9772,0.8037 0.9772 0.8037c 0.4840,-0.0000 1.2968,-0.1005 1.2968 -0.1005l -0.1187,0.5845 l -4.5114,0.8950 l 2.3653,-11.8904 l -6.2466,10.0091 l -0.9406,0.1461 v -0.2648 c 0.0000,-3.5708 -1.7443,-8.8676 -1.7443 -8.8676l -0.7489,3.7260 c -1.3699,6.8950 -5.9726,6.8950 -5.9726 6.8950c -1.6073,-0.0000 -2.8311,-1.0137 -2.8311 -1.0137ZM 362.0228,27.7900 ZM 371.8584,25.2968 l -0.1370,0.7032 c -2.9041,2.0183 -4.9498,2.0183 -4.9498 2.0183c -1.2968,-0.0000 -2.1050,-0.9087 -2.1050 -0.9087c -0.8082,-0.9087 -0.8082,-2.3516 -0.8082 -2.3516c 0.0000,-2.5753 1.9726,-4.8447 1.9726 -4.8447c 1.9726,-2.2694 4.2100,-2.2694 4.2100 -2.2694c 0.8128,-0.0000 1.3151,0.5479 1.3151 0.5479c 0.5023,0.5479 0.5023,1.4247 0.5023 1.4247c 0.0000,1.7534 -1.7900,3.0137 -1.7900 3.0137c -1.7900,1.2603 -4.2740,1.2603 -4.2740 1.2603l -0.0091,0.4110 c 0.0000,2.6667 1.9543,2.6667 1.9543 2.6667c 1.6895,-0.0000 4.1187,-1.6712 4.1187 -1.6712ZM 371.8584,25.2968 ZM 365.8128,23.3242 c 2.0457,-0.1644 3.1963,-1.0548 3.1963 -1.0548c 1.1507,-0.8904 1.1507,-2.3059 1.1507 -2.3059c 0.0000,-1.3973 -1.0137,-1.3973 -1.0137 -1.3973c -1.0959,-0.0000 -2.1187,1.4566 -2.1187 1.4566c -1.0228,1.4566 -1.2146,3.3014 -1.2146 3.3014ZM 372.1507,27.7900 ZM 374.6073,27.8995 l 0.6758,-2.8128 l 0.8950,-4.5114 c 0.2100,-1.0502 0.2100,-1.3699 0.2100 -1.3699c 0.0000,-0.5662 -0.5388,-0.5662 -0.5388 -0.5662c -0.8950,-0.0000 -2.7215,2.0000 -2.7215 2.0000l 0.1644,-0.8402 c 1.9909,-2.1461 3.5890,-2.1461 3.5890 -2.1461c 1.3151,-0.0000 1.3151,1.3699 1.3151 1.3699c 0.0000,0.4658 -0.2100,1.5525 -0.2100 1.5525l -0.4475,2.2557 h 0.1370 c 1.1416,-2.3379 2.5799,-3.7580 2.5799 -3.7580c 1.4384,-1.4201 2.6804,-1.4201 2.6804 -1.4201c 1.4977,-0.0000 1.4977,1.6621 1.4977 1.6621c 0.0000,0.5388 -0.1553,1.3151 -0.1553 1.3151l -0.8858,4.4566 c -0.2100,1.0594 -0.2100,1.3699 -0.2100 1.3699c 0.0000,0.5753 0.5388,0.5753 0.5388 0.5753c 0.9132,-0.0000 2.7306,-2.0091 2.7306 -2.0091l -0.1735,0.8493 c -1.9909,2.1461 -3.5890,2.1461 -3.5890 2.1461c -1.3151,-0.0000 -1.3151,-1.3790 -1.3151 -1.3790c 0.0000,-0.4566 0.2192,-1.5525 0.2192 -1.5525l 0.8858,-4.4749 c 0.1096,-0.5205 0.1096,-0.8767 0.1096 -0.8767c 0.0000,-0.7397 -0.5479,-0.7397 -0.5479 -0.7397c -1.7443,-0.0000 -4.8402,5.5342 -4.8402 5.5342l -0.6667,3.2603 ZM 385.4475,27.7900 ZM 395.1096,22.8311 h -0.1553 c -2.5936,5.1872 -5.0594,5.1872 -5.0594 5.1872c -1.4612,-0.0000 -1.4612,-1.7260 -1.4612 -1.7260c 0.0000,-0.4932 0.1461,-1.2329 0.1461 -1.2329l 0.8858,-4.4840 c 0.2100,-1.0502 0.2100,-1.3699 0.2100 -1.3699c 0.0000,-0.5662 -0.5388,-0.5662 -0.5388 -0.5662c -0.8950,-0.0000 -2.7215,2.0000 -2.7215 2.0000l 0.1644,-0.8402 c 1.9909,-2.1461 3.5890,-2.1461 3.5890 -2.1461c 1.3242,-0.0000 1.3242,1.3699 1.3242 1.3699c 0.0000,0.4566 -0.2192,1.5525 -0.2192 1.5525l -0.8950,4.4932 c -0.1187,0.6027 -0.1187,0.8584 -0.1187 0.8584c 0.0000,0.7397 0.5388,0.7397 0.5388 0.7397c 0.6849,-0.0000 2.0776,-1.6575 2.0776 -1.6575c 1.3927,-1.6575 2.5616,-3.8584 2.5616 -3.8584l 0.6575,-3.2785 l 1.9361,-0.1096 l -0.6758,2.8128 l -0.8950,4.5114 c -0.2100,1.0502 -0.2100,1.3699 -0.2100 1.3699c 0.0000,0.5753 0.5388,0.5753 0.5388 0.5753c 0.9041,-0.0000 2.7215,-2.0091 2.7215 -2.0091l -0.1644,0.8493 c -2.0000,2.1461 -3.5890,2.1461 -3.5890 2.1461c -1.3242,-0.0000 -1.3242,-1.3790 -1.3242 -1.3790c 0.0000,-0.4658 0.2192,-1.5525 0.2192 -1.5525Z"/>
  </g>
</svg>