<?xml version="1.0" encoding="UTF-8"?>
<!DOCTYPE svg PUBLIC "-//W3C//DTD SVG 1.1//EN"
    "http://www.w3.org/Graphics/SVG/1.1/DTD/svg11.dtd">
<svg stroke="rgb(0,0,0)" xmlns="http://www.w3.org/2000/svg" font-size="1" width="600.0000" stroke-opacity="1" xmlns:xlink="http://www.w3.org/1999/xlink" viewBox="0.0 0.0 600.0 40.0" height="40.0000" version="1.1">
  <defs>
  </defs>
  <defs>
    <linearGradient gradientTransform="matrix(2.0000,-0.0000,0.0000,-2.0000,300.0000,20.0000)" y1="-8.0000" spreadMethod="pad" id="gradient0" x1="0.0000" y2="8.0000" gradientUnits="userSpaceOnUse" x2="0.0000">
      <stop stop-color="rgb(51,75,27)" stop-opacity="1.0000" offset="0.0000"/>
      <stop stop-color="rgb(142,167,115)" stop-opacity="1.0000" offset="1.0000"/>
    </linearGradient>
  </defs>
  <g fill="url(#gradient0)" stroke="rgb(0,0,0)" stroke-linecap="butt" stroke-width="0.6196773353931867" stroke-miterlimit="10.0" fill-opacity="1" stroke-opacity="1.0" stroke-linejoin="miter">
    <path d="M 600.0000,24.0000 v -8.0000 c 0.0000,-8.8366 -7.1634,-16.0000 -16.0000 -16.0000h -568.0000 c -8.8366,-0.0000 -16.0000,7.1634 -16.0000 16.0000v 8.0000 c -0.0000,8.8366 7.1634,16.0000 16.0000 16.0000h 568.0000 c 8.8366,0.0000 16.0000,-7.1634 16.0000 -16.0000Z"/>
  </g>
  <g fill="rgb(255,255,255)" stroke="rgb(255,255,255)" stroke-linecap="butt" stroke-width="0.6196773353931867" font-size="24.0px" stroke-miterlimit="10.0" fill-opacity="1.0" stroke-opacity="1.0" stroke-linejoin="miter">
    <path d="M 30.7763,20.0000 ZM 32.0000,22.9315 c 0.3653,-2.0091 2.2374,-4.1826 2.2374 -4.1826l 5.6347,-5.9817 l 0.9863,-1.1050 h -7.5160 l 0.6393,-1.5799 h 8.5936 l -0.4110,1.0228 c -7.5068,8.0000 -8.0183,11.5982 -8.0183 11.5982Z"/>
  </g>
</svg>