<?xml version="1.0" encoding="UTF-8"?>
<!DOCTYPE svg PUBLIC "-//W3C//DTD SVG 1.1//EN"
    "http://www.w3.org/Graphics/SVG/1.1/DTD/svg11.dtd">
<svg stroke="rgb(0,0,0)" xmlns="http://www.w3.org/2000/svg" font-size="1" width="600.0000" stroke-opacity="1" xmlns:xlink="http://www.w3.org/1999/xlink" viewBox="0.0 0.0 600.0 40.0" height="40.0000" version="1.1">
  <defs>
  </defs>
  <defs>
    <linearGradient gradientTransform="matrix(2.0000,-0.0000,0.0000,-2.0000,300.0000,20.0000)" y1="-8.0000" spreadMethod="pad" id="gradient0" x1="0.0000" y2="8.0000" gradientUnits="userSpaceOnUse" x2="0.0000">
      <stop stop-color="rgb(51,75,27)" stop-opacity="1.0000" offset="0.0000"/>
      <stop stop-color="rgb(142,167,115)" stop-opacity="1.0000" offset="1.0000"/>
    </linearGradient>
  </defs>
  <g fill="url(#gradient0)" stroke="rgb(0,0,0)" stroke-linecap="butt" stroke-width="0.6196773353931867" stroke-miterlimit="10.0" fill-opacity="1" stroke-opacity="1.0" stroke-linejoin="miter">
    <path d="M 600.0000,24.0000 v -8.0000 c 0.0000,-8.8366 -7.1634,-16.0000 -16.0000 -16.0000h -568.0000 c -8.8366,-0.0000 -16.0000,7.1634 -16.0000 16.0000v 8.0000 c -0.0000,8.8366 7.1634,16.0000 16.0000 16.0000h 568.0000 c 8.8366,0.0000 16.0000,-7.1634 16.0000 -16.0000Z"/>
  </g>
  <g fill="rgb(255,255,255)" stroke="rgb(255,255,255)" stroke-linecap="butt" stroke-width="0.6196773353931867" font-size="24.0px" stroke-miterlimit="10.0" fill-opacity="1.0" stroke-opacity="1.0" stroke-linejoin="miter">
    <path d="M 30.2283,20.0000 ZM 35.5434,13.2968 l -0.1735,-0.1187 c -1.2785,-0.8950 -1.2785,-2.3470 -1.2785 -2.3470c 0.0000,-1.4429 1.4338,-2.5571 1.4338 -2.5571c 1.4338,-1.1142 3.2877,-1.1142 3.2877 -1.1142c 1.3151,-0.0000 2.1416,0.6256 2.1416 0.6256c 0.8265,0.6256 0.8265,1.6119 0.8265 1.6119c 0.0000,1.8813 -3.2877,3.7078 -3.2877 3.7078c 2.2831,1.4338 2.2831,3.1050 2.2831 3.1050c 0.0000,1.5342 -1.6073,2.7763 -1.6073 2.7763c -1.6073,1.2420 -3.6073,1.2420 -3.6073 1.2420c -1.5160,-0.0000 -2.5388,-0.8265 -2.5388 -0.8265c -1.0228,-0.8265 -1.0228,-2.0594 -1.0228 -2.0594c 0.0000,-2.1461 3.5434,-4.0457 3.5434 -4.0457ZM 35.5434,13.2968 ZM 37.9361,12.7763 c 2.3196,-1.4338 2.3196,-3.0137 2.3196 -3.0137c 0.0000,-0.8219 -0.6119,-1.3744 -0.6119 -1.3744c -0.6119,-0.5525 -1.5251,-0.5525 -1.5251 -0.5525c -1.0137,-0.0000 -1.7260,0.6941 -1.7260 0.6941c -0.7123,0.6941 -0.7123,1.6895 -0.7123 1.6895c 0.0000,1.0776 1.6530,2.1644 1.6530 2.1644ZM 37.9361,12.7763 ZM 36.0000,13.6804 c -2.2009,1.1781 -2.2009,3.4155 -2.2009 3.4155c 0.0000,1.1233 0.7078,1.7900 0.7078 1.7900c 0.7078,0.6667 1.8950,0.6667 1.8950 0.6667c 1.0685,-0.0000 1.8584,-0.7808 1.8584 -0.7808c 0.7900,-0.7808 0.7900,-1.8311 0.7900 -1.8311c 0.0000,-1.2877 -2.2831,-2.7671 -2.2831 -2.7671Z"/>
  </g>
</svg>