<?xml version="1.0" encoding="UTF-8"?>
<!DOCTYPE svg PUBLIC "-//W3C//DTD SVG 1.1//EN"
    "http://www.w3.org/Graphics/SVG/1.1/DTD/svg11.dtd">
<svg stroke="rgb(0,0,0)" xmlns="http://www.w3.org/2000/svg" font-size="1" width="600.0000" stroke-opacity="1" xmlns:xlink="http://www.w3.org/1999/xlink" viewBox="0.0 0.0 600.0 40.0" height="40.0000" version="1.1">
  <defs>
  </defs>
  <defs>
    <linearGradient gradientTransform="matrix(2.0000,-0.0000,0.0000,-2.0000,300.0000,20.0000)" y1="-8.0000" spreadMethod="pad" id="gradient0" x1="0.0000" y2="8.0000" gradientUnits="userSpaceOnUse" x2="0.0000">
      <stop stop-color="rgb(51,75,27)" stop-opacity="1.0000" offset="0.0000"/>
      <stop stop-color="rgb(142,167,115)" stop-opacity="1.0000" offset="1.0000"/>
    </linearGradient>
  </defs>
  <g fill="url(#gradient0)" stroke="rgb(0,0,0)" stroke-linecap="butt" stroke-width="0.6196773353931867" stroke-miterlimit="10.0" fill-opacity="1" stroke-opacity="1.0" stroke-linejoin="miter">
    <path d="M 600.0000,24.0000 v -8.0000 c 0.0000,-8.8366 -7.1634,-16.0000 -16.0000 -16.0000h -568.0000 c -8.8366,-0.0000 -16.0000,7.1634 -16.0000 16.0000v 8.0000 c -0.0000,8.8366 7.1634,16.0000 16.0000 16.0000h 568.0000 c 8.8366,0.0000 16.0000,-7.1634 16.0000 -16.0000Z"/>
  </g>
  <g fill="rgb(255,255,255)" stroke="rgb(255,255,255)" stroke-linecap="butt" stroke-width="0.6196773353931867" font-size="24.0px" stroke-miterlimit="10.0" fill-opacity="1.0" stroke-opacity="1.0" stroke-linejoin="miter">
    <path d="M 252.8721,23.7169 ZM 259.1096,23.9452 c -1.8447,-0.0000 -2.9178,-1.0639 -2.9178 -1.0639c -1.0731,-1.0639 -1.0731,-2.8904 -1.0731 -2.8904c 0.0000,-2.6758 1.7123,-4.5434 1.7123 -4.5434c 1.7123,-1.8676 4.1598,-1.8676 4.1598 -1.8676c 1.8995,-0.0000 2.9817,1.0365 2.9817 1.0365c 1.0822,1.0365 1.0822,2.8539 1.0822 2.8539c 0.0000,2.7306 -1.7169,4.6027 -1.7169 4.6027c -1.7169,1.8721 -4.2283,1.8721 -4.2283 1.8721ZM 259.1096,23.9452 ZM 259.2283,23.3790 c 1.5708,-0.0000 2.4658,-1.1507 2.4658 -1.1507c 0.6119,-0.7763 1.0731,-2.3881 1.0731 -2.3881c 0.4612,-1.6119 0.4612,-2.9543 0.4612 -2.9543c 0.0000,-2.7489 -2.3288,-2.7489 -2.3288 -2.7489c -1.7352,-0.0000 -2.8402,1.8539 -2.8402 1.8539c -1.1050,1.8539 -1.1050,4.7489 -1.1050 4.7489c 0.0000,2.6393 2.2740,2.6393 2.2740 2.6393ZM 277.7123,23.7169 ZM 279.6301,23.7169 l 1.3516,-1.3516 h 0.1553 c 1.3881,-0.0000 1.9132,-0.5753 1.9132 -0.5753c 0.5251,-0.5753 0.9087,-2.5297 0.9087 -2.5297l 1.6621,-8.3470 c -1.8813,-0.0000 -3.0411,1.0091 -3.0411 1.0091c -1.1598,1.0091 -1.1598,2.6347 -1.1598 2.6347v 0.2009 l -1.7717,0.8584 c 0.2283,-2.7671 2.1735,-4.0913 2.1735 -4.0913c 1.9452,-1.3242 5.7626,-1.3242 5.7626 -1.3242h 5.3699 l -0.8128,2.5845 h -0.5753 c 0.0731,-0.3562 0.0731,-0.6393 0.0731 -0.6393c 0.0000,-0.7215 -0.8265,-0.9954 -0.8265 -0.9954c -0.8265,-0.2740 -3.0091,-0.2740 -3.0091 -0.2740h -0.2831 l -1.0594,5.4064 h 4.0731 l -0.9315,0.9406 c -2.0731,-0.2648 -2.8219,-0.2648 -2.8219 -0.2648h -0.4566 l -0.1918,0.9863 c -0.3196,1.6621 -0.9726,2.6347 -0.9726 2.6347c -0.6530,0.9726 -2.0959,1.9315 -2.0959 1.9315l 4.3836,0.1735 l 0.9589,0.0274 c 1.4886,-0.0000 2.7854,-1.0320 2.7854 -1.0320l -0.1461,0.7397 c -1.6164,1.6347 -3.0411,1.6347 -3.0411 1.6347l -0.4201,-0.0091 ZM 291.4658,23.7169 ZM 292.0959,23.4064 l 1.1963,-1.2329 c 1.1872,0.8676 2.4201,0.8676 2.4201 0.8676c 0.7580,-0.0000 1.2785,-0.3973 1.2785 -0.3973c 0.5205,-0.3973 0.5205,-0.9817 0.5205 -0.9817c 0.0000,-0.6484 -1.0320,-1.7717 -1.0320 -1.7717l -0.8311,-0.9132 c -1.2146,-1.3333 -1.2146,-2.2283 -1.2146 -2.2283c 0.0000,-1.2420 1.1781,-2.2055 1.1781 -2.2055c 1.1781,-0.9635 2.6941,-0.9635 2.6941 -0.9635c 0.8311,-0.0000 1.8630,0.3470 1.8630 0.3470l -0.4018,2.0183 h -0.5753 l 0.0274,-0.1553 c 0.0183,-0.0822 0.0183,-0.1918 0.0183 -0.1918c 0.0000,-1.2329 -1.5890,-1.2329 -1.5890 -1.2329c -1.7808,-0.0000 -1.7808,1.4247 -1.7808 1.4247c 0.0000,0.7215 1.0594,1.9178 1.0594 1.9178l 0.7489,0.8311 c 1.2237,1.3790 1.2237,2.2648 1.2237 2.2648c 0.0000,1.2237 -1.2968,2.1826 -1.2968 2.1826c -1.2968,0.9589 -2.9498,0.9589 -2.9498 0.9589c -1.1598,-0.0000 -2.5571,-0.5388 -2.5571 -0.5388ZM 299.9041,23.7169 ZM 309.7215,21.2055 l -0.1370,0.7123 c -2.9954,2.0274 -4.9132,2.0274 -4.9132 2.0274c -1.3242,-0.0000 -2.1279,-0.8950 -2.1279 -0.8950c -0.8037,-0.8950 -0.8037,-2.3653 -0.8037 -2.3653c 0.0000,-2.6575 2.0091,-4.8813 2.0091 -4.8813c 2.0091,-2.2237 4.4201,-2.2237 4.4201 -2.2237c 1.0594,-0.0000 2.1096,0.4658 2.1096 0.4658l -0.6119,2.3470 h -0.5662 l 0.0274,-0.1370 c 0.0913,-0.4292 0.0913,-0.6301 0.0913 -0.6301c 0.0000,-1.2603 -1.7078,-1.2603 -1.7078 -1.2603c -1.6073,-0.0000 -2.6758,1.7169 -2.6758 1.7169c -1.0685,1.7169 -1.0685,4.3105 -1.0685 4.3105c 0.0000,2.4749 1.8447,2.4749 1.8447 2.4749c 1.7534,-0.0000 4.1096,-1.6621 4.1096 -1.6621ZM 310.1233,23.7169 ZM 319.1096,18.7580 h -0.1644 c -1.0320,2.2922 -2.4840,3.7397 -2.4840 3.7397c -1.4521,1.4475 -2.7215,1.4475 -2.7215 1.4475c -1.9269,-0.0000 -1.9269,-2.4110 -1.9269 -2.4110c 0.0000,-2.6575 2.1187,-5.2055 2.1187 -5.2055c 2.1918,-2.6393 5.3516,-2.6393 5.3516 -2.6393c 1.3059,-0.0000 2.7306,0.1096 2.7306 0.1096l -0.6575,2.7032 l -0.8858,4.5114 c -0.2100,1.0594 -0.2100,1.3699 -0.2100 1.3699c 0.0000,0.5753 0.5388,0.5753 0.5388 0.5753c 0.9132,-0.0000 2.7215,-2.0091 2.7215 -2.0091l -0.1644,0.8493 c -2.0000,2.1461 -3.5890,2.1461 -3.5890 2.1461c -1.3242,-0.0000 -1.3242,-1.3790 -1.3242 -1.3790c 0.0000,-0.4566 0.2192,-1.5525 0.2192 -1.5525ZM 319.1096,18.7580 ZM 319.8402,15.1050 c -1.1507,-0.5114 -2.2740,-0.5114 -2.2740 -0.5114c -1.6621,-0.0000 -2.6575,2.1005 -2.6575 2.1005c -1.1689,2.4840 -1.1689,4.4658 -1.1689 4.4658c 0.0000,1.4338 0.8402,1.4338 0.8402 1.4338c 0.7854,-0.0000 2.2603,-1.6484 2.2603 -1.6484c 1.4749,-1.6484 2.5890,-3.7671 2.5890 -3.7671ZM 322.6256,23.7169 ZM 318.7443,29.6347 l 1.2329,-1.3059 c 0.9315,0.4566 1.9361,0.4566 1.9361 0.4566c 2.3288,-0.0000 3.0959,-3.8539 3.0959 -3.8539l 1.4064,-7.0776 c 0.2466,-1.3516 0.2466,-1.7991 0.2466 -1.7991c 0.0000,-0.7671 -0.5845,-0.7671 -0.5845 -0.7671c -0.4201,-0.0000 -1.4795,0.3196 -1.4795 0.3196l 0.1187,-0.5662 l 4.4566,-1.4612 l -0.6941,2.9498 l -0.4475,2.2283 h 0.1553 c 1.0411,-2.3014 2.4886,-3.7397 2.4886 -3.7397c 1.4475,-1.4384 2.7169,-1.4384 2.7169 -1.4384c 1.9452,-0.0000 1.9452,2.4110 1.9452 2.4110c 0.0000,2.8219 -2.2237,5.3425 -2.2237 5.3425c -2.2237,2.5205 -4.7169,2.5205 -4.7169 2.5205c -0.2557,-0.0000 -1.0411,-0.1005 -1.0411 -0.1005c -0.1005,-0.0091 -0.3105,-0.0365 -0.3105 -0.0365c -0.7215,2.9498 -2.4977,4.5160 -2.4977 4.5160c -1.7763,1.5662 -4.4064,1.5662 -4.4064 1.5662c -0.6575,-0.0000 -1.3973,-0.1644 -1.3973 -0.1644ZM 318.7443,29.6347 ZM 327.3014,22.4292 c 1.1416,0.5023 2.2831,0.5023 2.2831 0.5023c 1.6530,-0.0000 2.6484,-2.1005 2.6484 -2.1005c 1.1781,-2.4840 1.1781,-4.4658 1.1781 -4.4658c 0.0000,-1.4338 -0.8493,-1.4338 -0.8493 -1.4338c -0.7763,-0.0000 -2.2466,1.6484 -2.2466 1.6484c -1.4703,1.6484 -2.6027,3.7763 -2.6027 3.7763ZM 335.0457,23.7169 ZM 344.8813,21.2237 l -0.1370,0.7032 c -2.9041,2.0183 -4.9498,2.0183 -4.9498 2.0183c -1.2968,-0.0000 -2.1050,-0.9087 -2.1050 -0.9087c -0.8082,-0.9087 -0.8082,-2.3516 -0.8082 -2.3516c 0.0000,-2.5753 1.9726,-4.8447 1.9726 -4.8447c 1.9726,-2.2694 4.2100,-2.2694 4.2100 -2.2694c 0.8128,-0.0000 1.3151,0.5479 1.3151 0.5479c 0.5023,0.5479 0.5023,1.4247 0.5023 1.4247c 0.0000,1.7534 -1.7900,3.0137 -1.7900 3.0137c -1.7900,1.2603 -4.2740,1.2603 -4.2740 1.2603l -0.0091,0.4110 c 0.0000,2.6667 1.9543,2.6667 1.9543 2.6667c 1.6895,-0.0000 4.1187,-1.6712 4.1187 -1.6712ZM 344.8813,21.2237 ZM 338.8356,19.2511 c 2.0457,-0.1644 3.1963,-1.0548 3.1963 -1.0548c 1.1507,-0.8904 1.1507,-2.3059 1.1507 -2.3059c 0.0000,-1.3973 -1.0137,-1.3973 -1.0137 -1.3973c -1.0959,-0.0000 -2.1187,1.4566 -2.1187 1.4566c -1.0228,1.4566 -1.2146,3.3014 -1.2146 3.3014Z"/>
  </g>
</svg>