<?xml version="1.0" encoding="UTF-8"?>
<!DOCTYPE svg PUBLIC "-//W3C//DTD SVG 1.1//EN"
    "http://www.w3.org/Graphics/SVG/1.1/DTD/svg11.dtd">
<svg stroke="rgb(0,0,0)" xmlns="http://www.w3.org/2000/svg" font-size="1" width="600.0000" stroke-opacity="1" xmlns:xlink="http://www.w3.org/1999/xlink" viewBox="0.0 0.0 600.0 40.0" height="40.0000" version="1.1">
  <defs>
  </defs>
  <defs>
    <linearGradient gradientTransform="matrix(2.0000,-0.0000,0.0000,-2.0000,300.0000,20.0000)" y1="-8.0000" spreadMethod="pad" id="gradient0" x1="0.0000" y2="8.0000" gradientUnits="userSpaceOnUse" x2="0.0000">
      <stop stop-color="rgb(51,75,27)" stop-opacity="1.0000" offset="0.0000"/>
      <stop stop-color="rgb(142,167,115)" stop-opacity="1.0000" offset="1.0000"/>
    </linearGradient>
  </defs>
  <g fill="url(#gradient0)" stroke="rgb(0,0,0)" stroke-linecap="butt" stroke-width="0.6196773353931867" stroke-miterlimit="10.0" fill-opacity="1" stroke-opacity="1.0" stroke-linejoin="miter">
    <path d="M 600.0000,24.0000 v -8.0000 c 0.0000,-8.8366 -7.1634,-16.0000 -16.0000 -16.0000h -568.0000 c -8.8366,-0.0000 -16.0000,7.1634 -16.0000 16.0000v 8.0000 c -0.0000,8.8366 7.1634,16.0000 16.0000 16.0000h 568.0000 c 8.8366,0.0000 16.0000,-7.1634 16.0000 -16.0000Z"/>
  </g>
  <g fill="rgb(255,255,255)" stroke="rgb(255,255,255)" stroke-linecap="butt" stroke-width="0.6196773353931867" font-size="24.0px" stroke-miterlimit="10.0" fill-opacity="1.0" stroke-opacity="1.0" stroke-linejoin="miter">
    <path d="M 239.8311,24.9589 ZM 240.9543,24.9589 l 0.4932,-1.4612 c 6.8676,-3.6712 6.8676,-6.1918 6.8676 -6.1918c 0.0000,-0.8128 -0.5799,-1.3699 -0.5799 -1.3699c -0.5799,-0.5571 -1.4292,-0.5571 -1.4292 -0.5571c -2.2009,-0.0000 -2.7763,2.0274 -2.7763 2.0274h -0.5571 l 0.2831,-2.0913 c 1.9269,-0.4932 3.2968,-0.4932 3.2968 -0.4932c 1.6986,-0.0000 2.6986,0.6438 2.6986 0.6438c 1.0000,0.6438 1.0000,1.7306 1.0000 1.7306c 0.0000,1.1689 -0.9406,2.0365 -0.9406 2.0365c -0.9406,0.8676 -4.4932,2.9680 -4.4932 2.9680l -2.2100,1.2968 h 6.8950 l -0.5753,1.4612 h -7.9726 ZM 262.8813,24.9589 ZM 269.5205,18.7032 l 0.6484,-0.7306 h 0.9680 l 1.1507,-5.8174 c -1.8721,-0.0000 -3.0365,1.0091 -3.0365 1.0091c -1.1644,1.0091 -1.1644,2.6347 -1.1644 2.6347l 0.0091,0.2009 l -1.7808,0.8584 c 0.2374,-2.8037 2.1781,-4.1096 2.1781 -4.1096c 1.9406,-1.3059 5.8584,-1.3059 5.8584 -1.3059h 5.2694 l -0.8219,2.5845 h -0.5845 c 0.1187,-0.3653 0.1187,-0.7215 0.1187 -0.7215c 0.0000,-1.1872 -3.7352,-1.1872 -3.7352 -1.1872h -0.3927 l -1.1598,5.8539 h 3.9817 l -0.9041,0.9315 c -1.4612,-0.2009 -2.7763,-0.2009 -2.7763 -0.2009h -0.4475 l -0.5297,2.6758 c -0.6667,3.3790 -2.5799,5.3973 -2.5799 5.3973c -1.9132,2.0183 -4.4521,2.0183 -4.4521 2.0183c -1.3699,-0.0000 -2.4475,-1.0320 -2.4475 -1.0320l 1.3425,-1.3699 c 0.7215,1.4977 2.3196,1.4977 2.3196 1.4977c 1.4612,-0.0000 2.2968,-1.3196 2.2968 -1.3196c 0.8356,-1.3196 1.5023,-4.6712 1.5023 -4.6712l 0.6393,-3.1963 h -1.4703 ZM 277.2100,24.9589 ZM 281.8402,25.1872 c -1.1963,-0.0000 -1.9954,-0.9361 -1.9954 -0.9361c -0.7991,-0.9361 -0.7991,-2.3333 -0.7991 -2.3333c 0.0000,-2.6301 1.9909,-4.8630 1.9909 -4.8630c 1.9909,-2.2329 4.3379,-2.2329 4.3379 -2.2329c 1.2694,-0.0000 2.0913,0.9132 2.0913 0.9132c 0.8219,0.9132 0.8219,2.3288 0.8219 2.3288c 0.0000,2.7306 -1.9909,4.9269 -1.9909 4.9269c -1.9909,2.1963 -4.4566,2.1963 -4.4566 2.1963ZM 281.8402,25.1872 ZM 282.8813,24.3927 c 1.3516,-0.0000 2.3790,-1.7397 2.3790 -1.7397c 1.0274,-1.7397 1.0274,-4.0411 1.0274 -4.0411c 0.0000,-3.0228 -1.8447,-3.0228 -1.8447 -3.0228c -1.3059,-0.0000 -2.3516,1.7945 -2.3516 1.7945c -1.0457,1.7945 -1.0457,4.0411 -1.0457 4.0411c 0.0000,2.9680 1.8356,2.9680 1.8356 2.9680ZM 288.1050,24.9589 ZM 297.7671,20.0000 h -0.1553 c -2.5936,5.1872 -5.0594,5.1872 -5.0594 5.1872c -1.4612,-0.0000 -1.4612,-1.7260 -1.4612 -1.7260c 0.0000,-0.4932 0.1461,-1.2329 0.1461 -1.2329l 0.8858,-4.4840 c 0.2100,-1.0502 0.2100,-1.3699 0.2100 -1.3699c 0.0000,-0.5662 -0.5388,-0.5662 -0.5388 -0.5662c -0.8950,-0.0000 -2.7215,2.0000 -2.7215 2.0000l 0.1644,-0.8402 c 1.9909,-2.1461 3.5890,-2.1461 3.5890 -2.1461c 1.3242,-0.0000 1.3242,1.3699 1.3242 1.3699c 0.0000,0.4566 -0.2192,1.5525 -0.2192 1.5525l -0.8950,4.4932 c -0.1187,0.6027 -0.1187,0.8584 -0.1187 0.8584c 0.0000,0.7397 0.5388,0.7397 0.5388 0.7397c 0.6849,-0.0000 2.0776,-1.6575 2.0776 -1.6575c 1.3927,-1.6575 2.5616,-3.8584 2.5616 -3.8584l 0.6575,-3.2785 l 1.9361,-0.1096 l -0.6758,2.8128 l -0.8950,4.5114 c -0.2100,1.0502 -0.2100,1.3699 -0.2100 1.3699c 0.0000,0.5753 0.5388,0.5753 0.5388 0.5753c 0.9041,-0.0000 2.7215,-2.0091 2.7215 -2.0091l -0.1644,0.8493 c -2.0000,2.1461 -3.5890,2.1461 -3.5890 2.1461c -1.3242,-0.0000 -1.3242,-1.3790 -1.3242 -1.3790c 0.0000,-0.4658 0.2192,-1.5525 0.2192 -1.5525ZM 301.1461,24.9589 ZM 303.6027,25.0685 l 0.6758,-2.8128 l 0.8950,-4.5114 c 0.2100,-1.0502 0.2100,-1.3699 0.2100 -1.3699c 0.0000,-0.5662 -0.5388,-0.5662 -0.5388 -0.5662c -0.8950,-0.0000 -2.7215,2.0000 -2.7215 2.0000l 0.1644,-0.8402 c 1.9909,-2.1461 3.5890,-2.1461 3.5890 -2.1461c 1.3151,-0.0000 1.3151,1.3699 1.3151 1.3699c 0.0000,0.4658 -0.2100,1.5525 -0.2100 1.5525l -0.4475,2.2557 h 0.1370 c 1.1416,-2.3379 2.5799,-3.7580 2.5799 -3.7580c 1.4384,-1.4201 2.6804,-1.4201 2.6804 -1.4201c 1.4977,-0.0000 1.4977,1.6621 1.4977 1.6621c 0.0000,0.5388 -0.1553,1.3151 -0.1553 1.3151l -0.8858,4.4566 c -0.2100,1.0594 -0.2100,1.3699 -0.2100 1.3699c 0.0000,0.5753 0.5388,0.5753 0.5388 0.5753c 0.9132,-0.0000 2.7306,-2.0091 2.7306 -2.0091l -0.1735,0.8493 c -1.9909,2.1461 -3.5890,2.1461 -3.5890 2.1461c -1.3151,-0.0000 -1.3151,-1.3790 -1.3151 -1.3790c 0.0000,-0.4566 0.2192,-1.5525 0.2192 -1.5525l 0.8858,-4.4749 c 0.1096,-0.5205 0.1096,-0.8767 0.1096 -0.8767c 0.0000,-0.7397 -0.5479,-0.7397 -0.5479 -0.7397c -1.7443,-0.0000 -4.8402,5.5342 -4.8402 5.5342l -0.6667,3.2603 ZM 314.4429,24.9589 ZM 323.4292,20.0000 h -0.1644 c -1.0502,2.3014 -2.4932,3.7443 -2.4932 3.7443c -1.4429,1.4429 -2.7032,1.4429 -2.7032 1.4429c -1.9361,-0.0000 -1.9361,-2.4201 -1.9361 -2.4201c 0.0000,-1.6438 0.9452,-3.4429 0.9452 -3.4429c 0.9452,-1.7991 2.4429,-3.0228 2.4429 -3.0228c 1.0046,-0.8128 2.0091,-1.0913 2.0091 -1.0913c 1.0046,-0.2785 2.9132,-0.2785 2.9132 -0.2785c 0.5388,-1.8082 1.1233,-2.7626 1.1233 -2.7626c 0.5845,-0.9543 1.6438,-1.7854 1.6438 -1.7854c 1.8082,-1.4247 3.9909,-1.4247 3.9909 -1.4247c 0.9041,-0.0000 1.6438,0.1918 1.6438 0.1918l -1.2511,1.2968 c -1.0868,-0.4749 -1.8447,-0.4749 -1.8447 -0.4749c -1.4612,-0.0000 -2.2009,1.0639 -2.2009 1.0639c -0.7397,1.0639 -1.3242,3.9863 -1.3242 3.9863l -1.4338,7.2329 c -0.2192,1.0594 -0.2192,1.3516 -0.2192 1.3516c 0.0000,0.5936 0.5388,0.5936 0.5388 0.5936c 0.9132,-0.0000 2.7306,-2.0091 2.7306 -2.0091l -0.1735,0.8493 c -1.9909,2.1461 -3.5799,2.1461 -3.5799 2.1461c -1.3242,-0.0000 -1.3242,-1.3790 -1.3242 -1.3790c 0.0000,-0.4475 0.2192,-1.5525 0.2192 -1.5525ZM 323.4292,20.0000 ZM 324.1598,16.3470 c -1.1324,-0.5114 -2.2831,-0.5114 -2.2831 -0.5114c -1.6530,-0.0000 -2.6484,2.1005 -2.6484 2.1005c -1.1781,2.4840 -1.1781,4.4658 -1.1781 4.4658c 0.0000,1.4338 0.8493,1.4338 0.8493 1.4338c 0.7854,-0.0000 2.2603,-1.6530 2.2603 -1.6530c 1.4749,-1.6530 2.5890,-3.7717 2.5890 -3.7717ZM 326.9361,24.9589 ZM 335.0274,22.1918 l -0.1644,0.8493 c -2.0000,2.1461 -3.5890,2.1461 -3.5890 2.1461c -1.3151,-0.0000 -1.3151,-1.3790 -1.3151 -1.3790c 0.0000,-0.4658 0.2100,-1.5342 0.2100 -1.5342l 0.6301,-3.1781 c 0.2557,-1.3516 0.2557,-1.7991 0.2557 -1.7991c 0.0000,-0.7671 -0.5936,-0.7671 -0.5936 -0.7671c -0.4110,-0.0000 -1.4703,0.3196 -1.4703 0.3196l 0.1096,-0.5662 l 4.4658,-1.4612 l -0.6941,2.9224 l -0.8950,4.5114 c -0.2100,1.0594 -0.2100,1.3516 -0.2100 1.3516c 0.0000,0.5936 0.5388,0.5936 0.5388 0.5936c 0.9041,-0.0000 2.7215,-2.0091 2.7215 -2.0091ZM 335.0274,22.1918 ZM 331.6758,13.2329 l 0.6119,-1.2420 l 2.5753,-1.6804 l -0.7854,1.6804 ZM 333.9772,24.9589 ZM 336.4338,25.0685 l 0.6758,-2.8128 l 0.8950,-4.5114 c 0.2100,-1.0502 0.2100,-1.3699 0.2100 -1.3699c 0.0000,-0.5662 -0.5388,-0.5662 -0.5388 -0.5662c -0.8950,-0.0000 -2.7215,2.0000 -2.7215 2.0000l 0.1644,-0.8402 c 1.9909,-2.1461 3.5890,-2.1461 3.5890 -2.1461c 1.3151,-0.0000 1.3151,1.3699 1.3151 1.3699c 0.0000,0.4658 -0.2100,1.5525 -0.2100 1.5525l -0.4475,2.2557 h 0.1370 c 1.1416,-2.3379 2.5799,-3.7580 2.5799 -3.7580c 1.4384,-1.4201 2.6804,-1.4201 2.6804 -1.4201c 1.4977,-0.0000 1.4977,1.6621 1.4977 1.6621c 0.0000,0.5388 -0.1553,1.3151 -0.1553 1.3151l -0.8858,4.4566 c -0.2100,1.0594 -0.2100,1.3699 -0.2100 1.3699c 0.0000,0.5753 0.5388,0.5753 0.5388 0.5753c 0.9132,-0.0000 2.7306,-2.0091 2.7306 -2.0091l -0.1735,0.8493 c -1.9909,2.1461 -3.5890,2.1461 -3.5890 2.1461c -1.3151,-0.0000 -1.3151,-1.3790 -1.3151 -1.3790c 0.0000,-0.4566 0.2192,-1.5525 0.2192 -1.5525l 0.8858,-4.4749 c 0.1096,-0.5205 0.1096,-0.8767 0.1096 -0.8767c 0.0000,-0.7397 -0.5479,-0.7397 -0.5479 -0.7397c -1.7443,-0.0000 -4.8402,5.5342 -4.8402 5.5342l -0.6667,3.2603 ZM 347.2740,24.9589 ZM 350.1142,24.8128 c -1.0959,-0.5479 -1.0959,-2.2009 -1.0959 -2.2009c 0.0000,-2.7032 2.1918,-5.2237 2.1918 -5.2237c 2.1279,-2.4566 5.2877,-2.4566 5.2877 -2.4566c 0.6027,-0.0000 2.5479,0.1096 2.5479 0.1096l -0.6484,2.7032 l -0.4292,2.1187 c -0.3288,1.6712 -0.4475,2.4658 -0.4475 2.4658c -0.5023,3.2420 -1.0091,4.4977 -1.0091 4.4977c -0.5068,1.2557 -1.7945,2.4612 -1.7945 2.4612c -1.8904,1.7534 -4.3562,1.7534 -4.3562 1.7534c -1.6073,-0.0000 -2.6119,-0.6256 -2.6119 -0.6256c -1.0046,-0.6256 -1.0046,-1.6301 -1.0046 -1.6301c 0.0000,-2.0091 3.3699,-3.9726 3.3699 -3.9726ZM 350.1142,24.8128 ZM 356.8630,16.3744 c -1.0959,-0.5388 -2.1826,-0.5388 -2.1826 -0.5388c -1.2146,-0.0000 -2.0548,1.0868 -2.0548 1.0868c -0.6667,0.8584 -1.2100,2.5342 -1.2100 2.5342c -0.5434,1.6758 -0.5434,2.8630 -0.5434 2.8630c 0.0000,1.2877 0.8128,1.2877 0.8128 1.2877c 1.7991,-0.0000 4.7763,-5.1963 4.7763 -5.1963ZM 356.8630,16.3744 ZM 356.1416,20.0000 h -0.1461 c -0.9680,2.1461 -2.3196,3.4521 -2.3196 3.4521c -1.3516,1.3059 -2.8402,1.5342 -2.8402 1.5342c -2.3927,1.6530 -2.3927,3.0685 -2.3927 3.0685c 0.0000,0.9132 0.8904,1.5571 0.8904 1.5571c 0.8904,0.6438 2.1598,0.6438 2.1598 0.6438c 1.6347,-0.0000 2.5799,-1.2740 2.5799 -1.2740c 0.9452,-1.2740 1.3470,-4.0228 1.3470 -4.0228Z"/>
  </g>
</svg>