<?xml version="1.0" encoding="UTF-8"?>
<!DOCTYPE svg PUBLIC "-//W3C//DTD SVG 1.1//EN"
    "http://www.w3.org/Graphics/SVG/1.1/DTD/svg11.dtd">
<svg stroke="rgb(0,0,0)" xmlns="http://www.w3.org/2000/svg" font-size="1" width="600.0000" stroke-opacity="1" xmlns:xlink="http://www.w3.org/1999/xlink" viewBox="0.0 0.0 600.0 40.0" height="40.0000" version="1.1">
  <defs>
  </defs>
  <defs>
    <linearGradient gradientTransform="matrix(2.0000,-0.0000,0.0000,-2.0000,300.0000,20.0000)" y1="-8.0000" spreadMethod="pad" id="gradient0" x1="0.0000" y2="8.0000" gradientUnits="userSpaceOnUse" x2="0.0000">
      <stop stop-color="rgb(51,75,27)" stop-opacity="1.0000" offset="0.0000"/>
      <stop stop-color="rgb(142,167,115)" stop-opacity="1.0000" offset="1.0000"/>
    </linearGradient>
  </defs>
  <g fill="url(#gradient0)" stroke="rgb(0,0,0)" stroke-linecap="butt" stroke-width="0.6196773353931867" stroke-miterlimit="10.0" fill-opacity="1" stroke-opacity="1.0" stroke-linejoin="miter">
    <path d="M 600.0000,24.0000 v -8.0000 c 0.0000,-8.8366 -7.1634,-16.0000 -16.0000 -16.0000h -568.0000 c -8.8366,-0.0000 -16.0000,7.1634 -16.0000 16.0000v 8.0000 c -0.0000,8.8366 7.1634,16.0000 16.0000 16.0000h 568.0000 c 8.8366,0.0000 16.0000,-7.1634 16.0000 -16.0000Z"/>
  </g>
  <g fill="rgb(255,255,255)" stroke="rgb(255,255,255)" stroke-linecap="butt" stroke-width="0.6196773353931867" font-size="24.0px" stroke-miterlimit="10.0" fill-opacity="1.0" stroke-opacity="1.0" stroke-linejoin="miter">
    <path d="M 242.3562,26.5342 ZM 242.7032,28.7443 l 1.1963,-1.2146 c 1.3881,1.2603 2.8311,1.2603 2.8311 1.2603c 1.1963,-0.0000 2.0548,-0.8311 2.0548 -0.8311c 0.8584,-0.8311 0.8584,-1.9817 0.8584 -1.9817c 0.0000,-1.2603 -1.0411,-2.0502 -1.0411 -2.0502c -1.0411,-0.7900 -2.7032,-0.7900 -2.7032 -0.7900c -0.2922,-0.0000 -0.7580,0.0548 -0.7580 0.0548l 0.6393,-1.4064 c 0.8311,-0.0000 1.5982,0.0639 1.5982 0.0639c 1.2968,-0.3196 2.1553,-1.1735 2.1553 -1.1735c 0.8584,-0.8539 0.8584,-1.8037 0.8584 -1.8037c 0.0000,-0.8402 -0.5753,-1.3790 -0.5753 -1.3790c -0.5753,-0.5388 -1.4795,-0.5388 -1.4795 -0.5388c -2.0822,-0.0000 -2.6119,2.0274 -2.6119 2.0274h -0.5662 l 0.3014,-2.0457 c 1.9726,-0.5388 3.3973,-0.5388 3.3973 -0.5388c 1.4977,-0.0000 2.4064,0.5708 2.4064 0.5708c 0.9087,0.5708 0.9087,1.5114 0.9087 1.5114c 0.0000,2.0183 -3.7260,3.5525 -3.7260 3.5525c 2.8311,0.8767 2.8311,3.2055 2.8311 3.2055c 0.0000,1.6895 -1.5662,2.9589 -1.5662 2.9589c -1.5662,1.2694 -3.6667,1.2694 -3.6667 1.2694c -1.7352,-0.0000 -3.3425,-0.7215 -3.3425 -0.7215ZM 264.7945,26.5342 ZM 265.8539,26.0228 l 1.2694,-1.2968 c 1.6804,1.3607 3.4795,1.3607 3.4795 1.3607c 1.2511,-0.0000 2.0457,-0.7078 2.0457 -0.7078c 0.7945,-0.7078 0.7945,-1.8219 0.7945 -1.8219c 0.0000,-1.0959 -1.4977,-2.4201 -1.4977 -2.4201l -1.2877,-1.1416 c -1.4338,-1.2603 -1.7763,-1.7717 -1.7763 -1.7717c -0.3425,-0.5114 -0.3425,-1.3699 -0.3425 -1.3699c 0.0000,-1.7078 1.4429,-2.9452 1.4429 -2.9452c 1.4429,-1.2374 3.4429,-1.2374 3.4429 -1.2374c 1.2694,-0.0000 2.9772,0.7580 2.9772 0.7580l -0.4566,2.2922 h -0.5753 c 0.0183,-0.2831 0.0183,-0.3927 0.0183 -0.3927c 0.0000,-0.8676 -0.6941,-1.3973 -0.6941 -1.3973c -0.6941,-0.5297 -1.8356,-0.5297 -1.8356 -0.5297c -1.1781,-0.0000 -1.9817,0.6986 -1.9817 0.6986c -0.8037,0.6986 -0.8037,1.7306 -0.8037 1.7306c 0.0000,0.6941 0.4064,1.2694 0.4064 1.2694c 0.4064,0.5753 1.6941,1.6712 1.6941 1.6712l 1.0776,0.9315 c 1.7991,1.5434 1.7991,2.8858 1.7991 2.8858c 0.0000,1.7626 -1.6895,3.0228 -1.6895 3.0228c -1.6895,1.2603 -4.0274,1.2603 -4.0274 1.2603c -1.7900,-0.0000 -3.4795,-0.8493 -3.4795 -0.8493ZM 275.6530,26.5342 ZM 285.3151,21.5753 h -0.1553 c -2.5936,5.1872 -5.0594,5.1872 -5.0594 5.1872c -1.4612,-0.0000 -1.4612,-1.7260 -1.4612 -1.7260c 0.0000,-0.4932 0.1461,-1.2329 0.1461 -1.2329l 0.8858,-4.4840 c 0.2100,-1.0502 0.2100,-1.3699 0.2100 -1.3699c 0.0000,-0.5662 -0.5388,-0.5662 -0.5388 -0.5662c -0.8950,-0.0000 -2.7215,2.0000 -2.7215 2.0000l 0.1644,-0.8402 c 1.9909,-2.1461 3.5890,-2.1461 3.5890 -2.1461c 1.3242,-0.0000 1.3242,1.3699 1.3242 1.3699c 0.0000,0.4566 -0.2192,1.5525 -0.2192 1.5525l -0.8950,4.4932 c -0.1187,0.6027 -0.1187,0.8584 -0.1187 0.8584c 0.0000,0.7397 0.5388,0.7397 0.5388 0.7397c 0.6849,-0.0000 2.0776,-1.6575 2.0776 -1.6575c 1.3927,-1.6575 2.5616,-3.8584 2.5616 -3.8584l 0.6575,-3.2785 l 1.9361,-0.1096 l -0.6758,2.8128 l -0.8950,4.5114 c -0.2100,1.0502 -0.2100,1.3699 -0.2100 1.3699c 0.0000,0.5753 0.5388,0.5753 0.5388 0.5753c 0.9041,-0.0000 2.7215,-2.0091 2.7215 -2.0091l -0.1644,0.8493 c -2.0000,2.1461 -3.5890,2.1461 -3.5890 2.1461c -1.3242,-0.0000 -1.3242,-1.3790 -1.3242 -1.3790c 0.0000,-0.4658 0.2192,-1.5525 0.2192 -1.5525ZM 288.6941,26.5342 ZM 291.2694,26.6438 l 0.6758,-2.8128 l 0.8858,-4.4658 c 0.1370,-0.6758 0.1370,-1.1689 0.1370 -1.1689c 0.0000,-0.7854 -0.5479,-0.7854 -0.5479 -0.7854c -0.9680,-0.0000 -2.7671,2.0639 -2.7671 2.0639l 0.1644,-0.8128 c 2.1096,-2.2740 3.6621,-2.2740 3.6621 -2.2740c 1.3151,-0.0000 1.3151,1.5068 1.3151 1.5068c 0.0000,0.6667 -0.1644,1.4795 -0.1644 1.4795l -0.4384,2.2009 h 0.1187 c 1.0868,-2.2831 2.5708,-3.7306 2.5708 -3.7306c 1.4840,-1.4475 2.7169,-1.4475 2.7169 -1.4475c 0.6393,-0.0000 1.1416,0.2831 1.1416 0.2831l -1.2146,1.6438 c -0.5388,-0.3562 -0.9132,-0.3562 -0.9132 -0.3562c -1.7808,-0.0000 -4.7397,5.2329 -4.7397 5.2329l -0.6667,3.3333 ZM 299.2237,26.5342 ZM 304.8858,26.7626 l 0.0457,-1.2420 c 0.0000,-3.6073 -0.6575,-5.6941 -0.6575 -5.6941c -0.6575,-2.0868 -1.7808,-2.0868 -1.7808 -2.0868c -1.1416,-0.0000 -2.4110,2.1918 -2.4110 2.1918l 0.2648,-1.3516 c 1.6530,-2.1826 3.0776,-2.1826 3.0776 -2.1826c 3.1689,-0.0000 3.1689,7.9909 3.1689 7.9909v 0.5023 l 0.7489,-0.9041 c 3.3333,-4.0183 3.3333,-5.8447 3.3333 -5.8447c 0.0000,-0.8584 -0.6027,-1.5251 -0.6027 -1.5251l 1.9543,-0.2192 c 0.4475,0.6667 0.4475,1.2146 0.4475 1.2146c 0.0000,0.7671 -0.6256,1.7260 -0.6256 1.7260c -0.6256,0.9589 -2.7169,3.3881 -2.7169 3.3881l -3.2694,3.8082 ZM 312.4018,26.5342 ZM 320.4932,23.7671 l -0.1644,0.8493 c -2.0000,2.1461 -3.5890,2.1461 -3.5890 2.1461c -1.3151,-0.0000 -1.3151,-1.3790 -1.3151 -1.3790c 0.0000,-0.4658 0.2100,-1.5342 0.2100 -1.5342l 0.6301,-3.1781 c 0.2557,-1.3516 0.2557,-1.7991 0.2557 -1.7991c 0.0000,-0.7671 -0.5936,-0.7671 -0.5936 -0.7671c -0.4110,-0.0000 -1.4703,0.3196 -1.4703 0.3196l 0.1096,-0.5662 l 4.4658,-1.4612 l -0.6941,2.9224 l -0.8950,4.5114 c -0.2100,1.0594 -0.2100,1.3516 -0.2100 1.3516c 0.0000,0.5936 0.5388,0.5936 0.5388 0.5936c 0.9041,-0.0000 2.7215,-2.0091 2.7215 -2.0091ZM 320.4932,23.7671 ZM 317.1416,14.8082 l 0.6119,-1.2420 l 2.5753,-1.6804 l -0.7854,1.6804 ZM 319.4429,26.5342 ZM 325.1050,26.7626 l 0.0457,-1.2420 c 0.0000,-3.6073 -0.6575,-5.6941 -0.6575 -5.6941c -0.6575,-2.0868 -1.7808,-2.0868 -1.7808 -2.0868c -1.1416,-0.0000 -2.4110,2.1918 -2.4110 2.1918l 0.2648,-1.3516 c 1.6530,-2.1826 3.0776,-2.1826 3.0776 -2.1826c 3.1689,-0.0000 3.1689,7.9909 3.1689 7.9909v 0.5023 l 0.7489,-0.9041 c 3.3333,-4.0183 3.3333,-5.8447 3.3333 -5.8447c 0.0000,-0.8584 -0.6027,-1.5251 -0.6027 -1.5251l 1.9543,-0.2192 c 0.4475,0.6667 0.4475,1.2146 0.4475 1.2146c 0.0000,0.7671 -0.6256,1.7260 -0.6256 1.7260c -0.6256,0.9589 -2.7169,3.3881 -2.7169 3.3881l -3.2694,3.8082 ZM 332.6210,26.5342 ZM 341.6073,21.5753 h -0.1644 c -1.0320,2.2922 -2.4840,3.7397 -2.4840 3.7397c -1.4521,1.4475 -2.7215,1.4475 -2.7215 1.4475c -1.9269,-0.0000 -1.9269,-2.4110 -1.9269 -2.4110c 0.0000,-2.6575 2.1187,-5.2055 2.1187 -5.2055c 2.1918,-2.6393 5.3516,-2.6393 5.3516 -2.6393c 1.3059,-0.0000 2.7306,0.1096 2.7306 0.1096l -0.6575,2.7032 l -0.8858,4.5114 c -0.2100,1.0594 -0.2100,1.3699 -0.2100 1.3699c 0.0000,0.5753 0.5388,0.5753 0.5388 0.5753c 0.9132,-0.0000 2.7215,-2.0091 2.7215 -2.0091l -0.1644,0.8493 c -2.0000,2.1461 -3.5890,2.1461 -3.5890 2.1461c -1.3242,-0.0000 -1.3242,-1.3790 -1.3242 -1.3790c 0.0000,-0.4566 0.2192,-1.5525 0.2192 -1.5525ZM 341.6073,21.5753 ZM 342.3379,17.9224 c -1.1507,-0.5114 -2.2740,-0.5114 -2.2740 -0.5114c -1.6621,-0.0000 -2.6575,2.1005 -2.6575 2.1005c -1.1689,2.4840 -1.1689,4.4658 -1.1689 4.4658c 0.0000,1.4338 0.8402,1.4338 0.8402 1.4338c 0.7854,-0.0000 2.2603,-1.6484 2.2603 -1.6484c 1.4749,-1.6484 2.5890,-3.7671 2.5890 -3.7671ZM 345.1233,26.5342 ZM 352.4658,23.7215 l -0.1644,0.8402 c -2.1553,2.2009 -3.7078,2.2009 -3.7078 2.2009c -1.2968,-0.0000 -1.2968,-1.3973 -1.2968 -1.3973c 0.0000,-0.5753 0.1918,-1.5434 0.1918 -1.5434l 1.2511,-6.3014 c 0.6575,-3.3059 2.4795,-5.1461 2.4795 -5.1461c 1.8219,-1.8402 4.4338,-1.8402 4.4338 -1.8402c 0.9132,-0.0000 1.6438,0.1918 1.6438 0.1918l -1.2511,1.3059 c -1.0594,-0.4840 -1.8265,-0.4840 -1.8265 -0.4840c -1.4521,-0.0000 -2.1826,1.0594 -2.1826 1.0594c -0.7306,1.0594 -1.3151,4.0091 -1.3151 4.0091l -1.4338,7.2146 c -0.2100,1.0502 -0.2100,1.3699 -0.2100 1.3699c 0.0000,0.5753 0.5388,0.5753 0.5388 0.5753c 0.6119,-0.0000 2.3653,-1.6256 2.3653 -1.6256c 0.1370,-0.1279 0.4840,-0.4292 0.4840 -0.4292Z"/>
  </g>
</svg>