<?xml version="1.0" encoding="UTF-8"?>
<!DOCTYPE svg PUBLIC "-//W3C//DTD SVG 1.1//EN"
    "http://www.w3.org/Graphics/SVG/1.1/DTD/svg11.dtd">
<svg stroke="rgb(0,0,0)" xmlns="http://www.w3.org/2000/svg" font-size="1" width="600.0000" stroke-opacity="1" xmlns:xlink="http://www.w3.org/1999/xlink" viewBox="0.0 0.0 600.0 40.0" height="40.0000" version="1.1">
  <defs>
  </defs>
  <defs>
    <linearGradient gradientTransform="matrix(2.0000,-0.0000,0.0000,-2.0000,300.0000,20.0000)" y1="-8.0000" spreadMethod="pad" id="gradient0" x1="0.0000" y2="8.0000" gradientUnits="userSpaceOnUse" x2="0.0000">
      <stop stop-color="rgb(51,75,27)" stop-opacity="1.0000" offset="0.0000"/>
      <stop stop-color="rgb(142,167,115)" stop-opacity="1.0000" offset="1.0000"/>
    </linearGradient>
  </defs>
  <g fill="url(#gradient0)" stroke="rgb(0,0,0)" stroke-linecap="butt" stroke-width="0.6196773353931867" stroke-miterlimit="10.0" fill-opacity="1" stroke-opacity="1.0" stroke-linejoin="miter">
    <path d="M 600.0000,24.0000 v -8.0000 c 0.0000,-8.8366 -7.1634,-16.0000 -16.0000 -16.0000h -568.0000 c -8.8366,-0.0000 -16.0000,7.1634 -16.0000 16.0000v 8.0000 c -0.0000,8.8366 7.1634,16.0000 16.0000 16.0000h 568.0000 c 8.8366,0.0000 16.0000,-7.1634 16.0000 -16.0000Z"/>
  </g>
  <g fill="rgb(255,255,255)" stroke="rgb(255,255,255)" stroke-linecap="butt" stroke-width="0.6196773353931867" font-size="24.0px" stroke-miterlimit="10.0" fill-opacity="1.0" stroke-opacity="1.0" stroke-linejoin="miter">
    <path d="M 263.9315,27.8311 ZM 265.2831,27.8311 l 0.2466,-0.5662 h 0.6393 c 0.8402,-0.0000 1.0411,-0.2603 1.0411 -0.2603c 0.2009,-0.2603 0.5388,-1.8037 0.5388 -1.8037l 0.9041,-4.5571 c 0.1918,-0.9863 0.1918,-1.3333 0.1918 -1.3333c 0.0000,-0.4201 -0.8037,-0.4840 -0.8037 -0.4840l -0.8311,-0.0639 l -0.0091,-0.5662 l 3.9543,-0.5023 l -0.6941,2.9224 l -0.8950,4.5114 c -0.2740,1.4338 -0.2740,1.5616 -0.2740 1.5616c 0.0000,0.5753 0.7854,0.5753 0.7854 0.5753h 0.8128 l 0.0274,0.5662 h -5.6347 ZM 284.4612,27.8311 ZM 286.3790,27.8311 l 1.3516,-1.3516 h 0.1553 c 1.3881,-0.0000 1.9132,-0.5753 1.9132 -0.5753c 0.5251,-0.5753 0.9087,-2.5297 0.9087 -2.5297l 1.6621,-8.3470 c -1.8813,-0.0000 -3.0411,1.0091 -3.0411 1.0091c -1.1598,1.0091 -1.1598,2.6347 -1.1598 2.6347v 0.2009 l -1.7717,0.8584 c 0.2283,-2.7671 2.1735,-4.0913 2.1735 -4.0913c 1.9452,-1.3242 5.7626,-1.3242 5.7626 -1.3242h 5.3699 l -0.8128,2.5845 h -0.5753 c 0.0731,-0.3562 0.0731,-0.6393 0.0731 -0.6393c 0.0000,-0.7215 -0.8265,-0.9954 -0.8265 -0.9954c -0.8265,-0.2740 -3.0091,-0.2740 -3.0091 -0.2740h -0.2831 l -1.0594,5.4064 h 4.0731 l -0.9315,0.9406 c -2.0731,-0.2648 -2.8219,-0.2648 -2.8219 -0.2648h -0.4566 l -0.1918,0.9863 c -0.3196,1.6621 -0.9726,2.6347 -0.9726 2.6347c -0.6530,0.9726 -2.0959,1.9315 -2.0959 1.9315l 4.3836,0.1735 l 0.9589,0.0274 c 1.4886,-0.0000 2.7854,-1.0320 2.7854 -1.0320l -0.1461,0.7397 c -1.6164,1.6347 -3.0411,1.6347 -3.0411 1.6347l -0.4201,-0.0091 ZM 298.2146,27.8311 ZM 299.4840,27.8311 l 0.8037,-1.6712 c 0.3379,0.1918 0.7671,0.1918 0.7671 0.1918c 1.3881,-0.0000 3.4795,-2.5023 3.4795 -2.5023l 0.5479,-0.6667 l -1.2420,-2.9224 c -0.4658,-1.1050 -0.9132,-1.1050 -0.9132 -1.1050c -0.5479,-0.0000 -1.6621,1.4886 -1.6621 1.4886l 0.2374,-1.1963 c 1.3333,-1.7534 2.2831,-1.7534 2.2831 -1.7534c 0.8858,-0.0000 1.6621,1.7717 1.6621 1.7717l 1.0411,2.3836 l 0.5936,-0.7580 c 2.6667,-3.3973 4.3744,-3.3973 4.3744 -3.3973c 0.4566,-0.0000 0.9406,0.3014 0.9406 0.3014l -0.9406,1.6621 c -0.3744,-0.2283 -0.7215,-0.2283 -0.7215 -0.2283c -1.5160,-0.0000 -3.5616,2.5023 -3.5616 2.5023l -0.4384,0.5297 l 1.3699,3.1872 c 0.4749,1.1416 0.9498,1.1416 0.9498 1.1416c 0.6484,-0.0000 1.8082,-1.3607 1.8082 -1.3607l -0.2192,1.0959 c -1.3973,1.5342 -2.4749,1.5342 -2.4749 1.5342c -1.0320,-0.0000 -1.6712,-1.5068 -1.6712 -1.5068l -1.1781,-2.7945 l -0.7397,0.9406 c -2.6393,3.3607 -4.1279,3.3607 -4.1279 3.3607c -0.3744,-0.0000 -0.9680,-0.2283 -0.9680 -0.2283ZM 311.4932,27.8311 ZM 319.5845,25.0639 l -0.1644,0.8493 c -2.0000,2.1461 -3.5890,2.1461 -3.5890 2.1461c -1.3151,-0.0000 -1.3151,-1.3790 -1.3151 -1.3790c 0.0000,-0.4658 0.2100,-1.5342 0.2100 -1.5342l 0.6301,-3.1781 c 0.2557,-1.3516 0.2557,-1.7991 0.2557 -1.7991c 0.0000,-0.7671 -0.5936,-0.7671 -0.5936 -0.7671c -0.4110,-0.0000 -1.4703,0.3196 -1.4703 0.3196l 0.1096,-0.5662 l 4.4658,-1.4612 l -0.6941,2.9224 l -0.8950,4.5114 c -0.2100,1.0594 -0.2100,1.3516 -0.2100 1.3516c 0.0000,0.5936 0.5388,0.5936 0.5388 0.5936c 0.9041,-0.0000 2.7215,-2.0091 2.7215 -2.0091ZM 319.5845,25.0639 ZM 316.2329,16.1050 l 0.6119,-1.2420 l 2.5753,-1.6804 l -0.7854,1.6804 ZM 318.5342,27.8311 ZM 325.8767,25.0183 l -0.1644,0.8402 c -2.1553,2.2009 -3.7078,2.2009 -3.7078 2.2009c -1.2968,-0.0000 -1.2968,-1.3973 -1.2968 -1.3973c 0.0000,-0.5753 0.1918,-1.5434 0.1918 -1.5434l 1.2511,-6.3014 c 0.6575,-3.3059 2.4795,-5.1461 2.4795 -5.1461c 1.8219,-1.8402 4.4338,-1.8402 4.4338 -1.8402c 0.9132,-0.0000 1.6438,0.1918 1.6438 0.1918l -1.2511,1.3059 c -1.0594,-0.4840 -1.8265,-0.4840 -1.8265 -0.4840c -1.4521,-0.0000 -2.1826,1.0594 -2.1826 1.0594c -0.7306,1.0594 -1.3151,4.0091 -1.3151 4.0091l -1.4338,7.2146 c -0.2100,1.0502 -0.2100,1.3699 -0.2100 1.3699c 0.0000,0.5753 0.5388,0.5753 0.5388 0.5753c 0.6119,-0.0000 2.3653,-1.6256 2.3653 -1.6256c 0.1370,-0.1279 0.4840,-0.4292 0.4840 -0.4292ZM 324.8813,27.8311 ZM 334.7169,25.3379 l -0.1370,0.7032 c -2.9041,2.0183 -4.9498,2.0183 -4.9498 2.0183c -1.2968,-0.0000 -2.1050,-0.9087 -2.1050 -0.9087c -0.8082,-0.9087 -0.8082,-2.3516 -0.8082 -2.3516c 0.0000,-2.5753 1.9726,-4.8447 1.9726 -4.8447c 1.9726,-2.2694 4.2100,-2.2694 4.2100 -2.2694c 0.8128,-0.0000 1.3151,0.5479 1.3151 0.5479c 0.5023,0.5479 0.5023,1.4247 0.5023 1.4247c 0.0000,1.7534 -1.7900,3.0137 -1.7900 3.0137c -1.7900,1.2603 -4.2740,1.2603 -4.2740 1.2603l -0.0091,0.4110 c 0.0000,2.6667 1.9543,2.6667 1.9543 2.6667c 1.6895,-0.0000 4.1187,-1.6712 4.1187 -1.6712ZM 334.7169,25.3379 ZM 328.6712,23.3653 c 2.0457,-0.1644 3.1963,-1.0548 3.1963 -1.0548c 1.1507,-0.8904 1.1507,-2.3059 1.1507 -2.3059c 0.0000,-1.3973 -1.0137,-1.3973 -1.0137 -1.3973c -1.0959,-0.0000 -2.1187,1.4566 -2.1187 1.4566c -1.0228,1.4566 -1.2146,3.3014 -1.2146 3.3014Z"/>
  </g>
</svg>