<?xml version="1.0" encoding="UTF-8"?>
<!DOCTYPE svg PUBLIC "-//W3C//DTD SVG 1.1//EN"
    "http://www.w3.org/Graphics/SVG/1.1/DTD/svg11.dtd">
<svg stroke="rgb(0,0,0)" xmlns="http://www.w3.org/2000/svg" font-size="1" width="600.0000" stroke-opacity="1" xmlns:xlink="http://www.w3.org/1999/xlink" viewBox="0.0 0.0 600.0 40.0" height="40.0000" version="1.1">
  <defs>
  </defs>
  <defs>
    <linearGradient gradientTransform="matrix(2.0000,-0.0000,0.0000,-2.0000,300.0000,20.0000)" y1="-8.0000" spreadMethod="pad" id="gradient0" x1="0.0000" y2="8.0000" gradientUnits="userSpaceOnUse" x2="0.0000">
      <stop stop-color="rgb(51,75,27)" stop-opacity="1.0000" offset="0.0000"/>
      <stop stop-color="rgb(142,167,115)" stop-opacity="1.0000" offset="1.0000"/>
    </linearGradient>
  </defs>
  <g fill="url(#gradient0)" stroke="rgb(0,0,0)" stroke-linecap="butt" stroke-width="0.6196773353931867" stroke-miterlimit="10.0" fill-opacity="1" stroke-opacity="1.0" stroke-linejoin="miter">
    <path d="M 600.0000,24.0000 v -8.0000 c 0.0000,-8.8366 -7.1634,-16.0000 -16.0000 -16.0000h -568.0000 c -8.8366,-0.0000 -16.0000,7.1634 -16.0000 16.0000v 8.0000 c -0.0000,8.8366 7.1634,16.0000 16.0000 16.0000h 568.0000 c 8.8366,0.0000 16.0000,-7.1634 16.0000 -16.0000Z"/>
  </g>
  <g fill="rgb(255,255,255)" stroke="rgb(255,255,255)" stroke-linecap="butt" stroke-width="0.6196773353931867" font-size="24.0px" stroke-miterlimit="10.0" fill-opacity="1.0" stroke-opacity="1.0" stroke-linejoin="miter">
    <path d="M 241.5708,24.2831 ZM 248.9589,23.9178 l -6.8128,-0.2831 l 0.1553,-0.7580 l 9.2237,-8.5114 l 0.9498,-0.2192 l -1.7078,8.6119 l 2.7215,0.1187 l -0.4110,1.2237 l -2.5479,-0.1187 c -0.2009,1.4064 -0.2009,1.9361 -0.2009 1.9361c 0.0000,0.5023 0.7032,0.5023 0.7032 0.5023h 0.7945 l 0.0457,0.5662 h -5.4795 l 0.2557,-0.5662 h 0.7945 c 0.6667,-0.0000 0.8721,-0.3379 0.8721 -0.3379c 0.2055,-0.3379 0.6438,-2.1644 0.6438 -2.1644ZM 248.9589,23.9178 ZM 249.2055,22.6941 l 1.2877,-6.4658 l -6.9132,6.2100 ZM 266.2009,24.2831 ZM 268.1187,24.2831 l 1.3607,-1.3516 h 0.1735 l 0.3927,0.0091 c 1.0776,-0.0000 1.5708,-0.7169 1.5708 -0.7169c 0.4932,-0.7169 0.9315,-2.8995 0.9315 -2.8995l 1.5525,-7.8447 c -1.8721,-0.0000 -3.0365,1.0091 -3.0365 1.0091c -1.1644,1.0091 -1.1644,2.6347 -1.1644 2.6347l 0.0091,0.2009 l -1.7808,0.8584 c 0.2557,-2.8402 2.2009,-4.1324 2.2009 -4.1324c 1.9452,-1.2922 5.9817,-1.2922 5.9817 -1.2922c 2.9041,-0.0000 4.1416,0.6256 4.1416 0.6256c 1.2374,0.6256 1.2374,2.0868 1.2374 2.0868c 0.0000,1.1689 -0.8493,2.3836 -0.8493 2.3836c -0.8493,1.2146 -2.1370,1.8721 -2.1370 1.8721c -1.4886,0.7489 -3.3973,0.7489 -3.3973 0.7489h -0.2466 l 0.3470,-0.5662 h 0.1644 c 1.7534,-0.0000 2.9406,-1.1507 2.9406 -1.1507c 1.1872,-1.1507 1.1872,-2.8584 1.1872 -2.8584c 0.0000,-2.5753 -3.6530,-2.5753 -3.6530 -2.5753l -1.4703,7.3973 c -0.5479,2.7854 -3.0228,4.3653 -3.0228 4.3653l 3.5160,0.0731 l -1.2603,1.3516 ZM 280.5114,24.2831 ZM 285.1416,24.5114 c -1.1963,-0.0000 -1.9954,-0.9361 -1.9954 -0.9361c -0.7991,-0.9361 -0.7991,-2.3333 -0.7991 -2.3333c 0.0000,-2.6301 1.9909,-4.8630 1.9909 -4.8630c 1.9909,-2.2329 4.3379,-2.2329 4.3379 -2.2329c 1.2694,-0.0000 2.0913,0.9132 2.0913 0.9132c 0.8219,0.9132 0.8219,2.3288 0.8219 2.3288c 0.0000,2.7306 -1.9909,4.9269 -1.9909 4.9269c -1.9909,2.1963 -4.4566,2.1963 -4.4566 2.1963ZM 285.1416,24.5114 ZM 286.1826,23.7169 c 1.3516,-0.0000 2.3790,-1.7397 2.3790 -1.7397c 1.0274,-1.7397 1.0274,-4.0411 1.0274 -4.0411c 0.0000,-3.0228 -1.8447,-3.0228 -1.8447 -3.0228c -1.3059,-0.0000 -2.3516,1.7945 -2.3516 1.7945c -1.0457,1.7945 -1.0457,4.0411 -1.0457 4.0411c 0.0000,2.9680 1.8356,2.9680 1.8356 2.9680ZM 291.4064,24.2831 ZM 292.0365,23.9726 l 1.1963,-1.2329 c 1.1872,0.8676 2.4201,0.8676 2.4201 0.8676c 0.7580,-0.0000 1.2785,-0.3973 1.2785 -0.3973c 0.5205,-0.3973 0.5205,-0.9817 0.5205 -0.9817c 0.0000,-0.6484 -1.0320,-1.7717 -1.0320 -1.7717l -0.8311,-0.9132 c -1.2146,-1.3333 -1.2146,-2.2283 -1.2146 -2.2283c 0.0000,-1.2420 1.1781,-2.2055 1.1781 -2.2055c 1.1781,-0.9635 2.6941,-0.9635 2.6941 -0.9635c 0.8311,-0.0000 1.8630,0.3470 1.8630 0.3470l -0.4018,2.0183 h -0.5753 l 0.0274,-0.1553 c 0.0183,-0.0822 0.0183,-0.1918 0.0183 -0.1918c 0.0000,-1.2329 -1.5890,-1.2329 -1.5890 -1.2329c -1.7808,-0.0000 -1.7808,1.4247 -1.7808 1.4247c 0.0000,0.7215 1.0594,1.9178 1.0594 1.9178l 0.7489,0.8311 c 1.2237,1.3790 1.2237,2.2648 1.2237 2.2648c 0.0000,1.2237 -1.2968,2.1826 -1.2968 2.1826c -1.2968,0.9589 -2.9498,0.9589 -2.9498 0.9589c -1.1598,-0.0000 -2.5571,-0.5388 -2.5571 -0.5388ZM 299.8447,24.2831 ZM 304.0000,15.0411 h -2.0913 l 0.6301,-0.6758 h 1.5890 l 0.5205,-2.5845 l 1.8904,-0.4566 l -0.6027,3.0411 h 3.4429 l -0.7489,0.8037 c -1.1781,-0.1279 -2.0913,-0.1279 -2.0913 -0.1279h -0.7397 l -1.2420,6.2557 c -0.1918,0.9680 -0.1918,1.3607 -0.1918 1.3607c 0.0000,0.7215 0.6393,0.7215 0.6393 0.7215c 0.9863,-0.0000 2.6941,-1.4612 2.6941 -1.4612l -0.1644,0.8402 c -1.7717,1.7534 -3.4064,1.7534 -3.4064 1.7534c -1.5525,-0.0000 -1.5525,-1.7169 -1.5525 -1.7169c 0.0000,-0.6119 0.2009,-1.6256 0.2009 -1.6256ZM 308.3653,24.2831 ZM 318.2009,21.7900 l -0.1370,0.7032 c -2.9041,2.0183 -4.9498,2.0183 -4.9498 2.0183c -1.2968,-0.0000 -2.1050,-0.9087 -2.1050 -0.9087c -0.8082,-0.9087 -0.8082,-2.3516 -0.8082 -2.3516c 0.0000,-2.5753 1.9726,-4.8447 1.9726 -4.8447c 1.9726,-2.2694 4.2100,-2.2694 4.2100 -2.2694c 0.8128,-0.0000 1.3151,0.5479 1.3151 0.5479c 0.5023,0.5479 0.5023,1.4247 0.5023 1.4247c 0.0000,1.7534 -1.7900,3.0137 -1.7900 3.0137c -1.7900,1.2603 -4.2740,1.2603 -4.2740 1.2603l -0.0091,0.4110 c 0.0000,2.6667 1.9543,2.6667 1.9543 2.6667c 1.6895,-0.0000 4.1187,-1.6712 4.1187 -1.6712ZM 318.2009,21.7900 ZM 312.1553,19.8174 c 2.0457,-0.1644 3.1963,-1.0548 3.1963 -1.0548c 1.1507,-0.8904 1.1507,-2.3059 1.1507 -2.3059c 0.0000,-1.3973 -1.0137,-1.3973 -1.0137 -1.3973c -1.0959,-0.0000 -2.1187,1.4566 -2.1187 1.4566c -1.0228,1.4566 -1.2146,3.3014 -1.2146 3.3014ZM 318.4932,24.2831 ZM 321.0685,24.3927 l 0.6758,-2.8128 l 0.8858,-4.4658 c 0.1370,-0.6758 0.1370,-1.1689 0.1370 -1.1689c 0.0000,-0.7854 -0.5479,-0.7854 -0.5479 -0.7854c -0.9680,-0.0000 -2.7671,2.0639 -2.7671 2.0639l 0.1644,-0.8128 c 2.1096,-2.2740 3.6621,-2.2740 3.6621 -2.2740c 1.3151,-0.0000 1.3151,1.5068 1.3151 1.5068c 0.0000,0.6667 -0.1644,1.4795 -0.1644 1.4795l -0.4384,2.2009 h 0.1187 c 1.0868,-2.2831 2.5708,-3.7306 2.5708 -3.7306c 1.4840,-1.4475 2.7169,-1.4475 2.7169 -1.4475c 0.6393,-0.0000 1.1416,0.2831 1.1416 0.2831l -1.2146,1.6438 c -0.5388,-0.3562 -0.9132,-0.3562 -0.9132 -0.3562c -1.7808,-0.0000 -4.7397,5.2329 -4.7397 5.2329l -0.6667,3.3333 ZM 329.0228,24.2831 ZM 337.1142,21.5160 l -0.1644,0.8493 c -2.0000,2.1461 -3.5890,2.1461 -3.5890 2.1461c -1.3151,-0.0000 -1.3151,-1.3790 -1.3151 -1.3790c 0.0000,-0.4658 0.2100,-1.5342 0.2100 -1.5342l 0.6301,-3.1781 c 0.2557,-1.3516 0.2557,-1.7991 0.2557 -1.7991c 0.0000,-0.7671 -0.5936,-0.7671 -0.5936 -0.7671c -0.4110,-0.0000 -1.4703,0.3196 -1.4703 0.3196l 0.1096,-0.5662 l 4.4658,-1.4612 l -0.6941,2.9224 l -0.8950,4.5114 c -0.2100,1.0594 -0.2100,1.3516 -0.2100 1.3516c 0.0000,0.5936 0.5388,0.5936 0.5388 0.5936c 0.9041,-0.0000 2.7215,-2.0091 2.7215 -2.0091ZM 337.1142,21.5160 ZM 333.7626,12.5571 l 0.6119,-1.2420 l 2.5753,-1.6804 l -0.7854,1.6804 ZM 336.0639,24.2831 ZM 340.2192,15.0411 h -2.0913 l 0.6301,-0.6758 h 1.5890 l 0.5205,-2.5845 l 1.8904,-0.4566 l -0.6027,3.0411 h 3.4429 l -0.7489,0.8037 c -1.1781,-0.1279 -2.0913,-0.1279 -2.0913 -0.1279h -0.7397 l -1.2420,6.2557 c -0.1918,0.9680 -0.1918,1.3607 -0.1918 1.3607c 0.0000,0.7215 0.6393,0.7215 0.6393 0.7215c 0.9863,-0.0000 2.6941,-1.4612 2.6941 -1.4612l -0.1644,0.8402 c -1.7717,1.7534 -3.4064,1.7534 -3.4064 1.7534c -1.5525,-0.0000 -1.5525,-1.7169 -1.5525 -1.7169c 0.0000,-0.6119 0.2009,-1.6256 0.2009 -1.6256ZM 344.5845,24.2831 ZM 346.8311,30.1005 l 1.2603,-1.2785 c 0.9041,0.5297 1.9361,0.5297 1.9361 0.5297c 1.2694,-0.0000 1.9772,-0.9041 1.9772 -0.9041c 0.7078,-0.9041 1.2831,-3.2877 1.2831 -3.2877l 1.4155,-5.8356 h -0.1187 c -1.0685,2.1735 -2.1735,3.5662 -2.1735 3.5662c -1.1050,1.3927 -1.7443,1.3927 -1.7443 1.3927c -0.6667,-0.0000 -1.0000,-0.7169 -1.0000 -0.7169c -0.3333,-0.7169 -0.5799,-2.6621 -0.5799 -2.6621l -0.4384,-3.5525 c -0.2466,-1.9726 -0.8311,-1.9726 -0.8311 -1.9726c -0.5662,-0.0000 -1.8356,1.5982 -1.8356 1.5982l 0.1826,-0.9315 c 1.4338,-1.8995 2.7123,-1.8995 2.7123 -1.8995c 0.7306,-0.0000 1.0411,0.6575 1.0411 0.6575c 0.3105,0.6575 0.5845,2.7671 0.5845 2.7671l 0.3836,3.0502 c 0.2100,1.6347 0.6941,1.6347 0.6941 1.6347c 0.5662,-0.0000 1.5982,-1.5799 1.5982 -1.5799c 0.1826,-0.2922 2.0365,-3.3881 2.0365 -3.3881l 0.6941,-2.9224 l 1.9452,-0.1096 l -0.8128,2.8493 l -1.5982,6.4932 c -0.8128,3.2968 -2.5890,5.0320 -2.5890 5.0320c -1.7763,1.7352 -4.3516,1.7352 -4.3516 1.7352c -0.9772,-0.0000 -1.6712,-0.2648 -1.6712 -0.2648Z"/>
  </g>
</svg>