<?xml version="1.0" encoding="UTF-8"?>
<!DOCTYPE svg PUBLIC "-//W3C//DTD SVG 1.1//EN"
    "http://www.w3.org/Graphics/SVG/1.1/DTD/svg11.dtd">
<svg stroke="rgb(0,0,0)" xmlns="http://www.w3.org/2000/svg" font-size="1" width="600.0000" stroke-opacity="1" xmlns:xlink="http://www.w3.org/1999/xlink" viewBox="0.0 0.0 600.0 40.0" height="40.0000" version="1.1">
  <defs>
  </defs>
  <defs>
    <linearGradient gradientTransform="matrix(2.0000,-0.0000,0.0000,-2.0000,300.0000,20.0000)" y1="-8.0000" spreadMethod="pad" id="gradient0" x1="0.0000" y2="8.0000" gradientUnits="userSpaceOnUse" x2="0.0000">
      <stop stop-color="rgb(51,75,27)" stop-opacity="1.0000" offset="0.0000"/>
      <stop stop-color="rgb(142,167,115)" stop-opacity="1.0000" offset="1.0000"/>
    </linearGradient>
  </defs>
  <g fill="url(#gradient0)" stroke="rgb(0,0,0)" stroke-linecap="butt" stroke-width="0.6196773353931867" stroke-miterlimit="10.0" fill-opacity="1" stroke-opacity="1.0" stroke-linejoin="miter">
    <path d="M 600.0000,24.0000 v -8.0000 c 0.0000,-8.8366 -7.1634,-16.0000 -16.0000 -16.0000h -568.0000 c -8.8366,-0.0000 -16.0000,7.1634 -16.0000 16.0000v 8.0000 c -0.0000,8.8366 7.1634,16.0000 16.0000 16.0000h 568.0000 c 8.8366,0.0000 16.0000,-7.1634 16.0000 -16.0000Z"/>
  </g>
  <g fill="rgb(255,255,255)" stroke="rgb(255,255,255)" stroke-linecap="butt" stroke-width="0.6196773353931867" font-size="24.0px" stroke-miterlimit="10.0" fill-opacity="1.0" stroke-opacity="1.0" stroke-linejoin="miter">
    <path d="M 226.0868,26.0822 ZM 226.4338,28.2922 l 1.1963,-1.2146 c 1.3881,1.2603 2.8311,1.2603 2.8311 1.2603c 1.1963,-0.0000 2.0548,-0.8311 2.0548 -0.8311c 0.8584,-0.8311 0.8584,-1.9817 0.8584 -1.9817c 0.0000,-1.2603 -1.0411,-2.0502 -1.0411 -2.0502c -1.0411,-0.7900 -2.7032,-0.7900 -2.7032 -0.7900c -0.2922,-0.0000 -0.7580,0.0548 -0.7580 0.0548l 0.6393,-1.4064 c 0.8311,-0.0000 1.5982,0.0639 1.5982 0.0639c 1.2968,-0.3196 2.1553,-1.1735 2.1553 -1.1735c 0.8584,-0.8539 0.8584,-1.8037 0.8584 -1.8037c 0.0000,-0.8402 -0.5753,-1.3790 -0.5753 -1.3790c -0.5753,-0.5388 -1.4795,-0.5388 -1.4795 -0.5388c -2.0822,-0.0000 -2.6119,2.0274 -2.6119 2.0274h -0.5662 l 0.3014,-2.0457 c 1.9726,-0.5388 3.3973,-0.5388 3.3973 -0.5388c 1.4977,-0.0000 2.4064,0.5708 2.4064 0.5708c 0.9087,0.5708 0.9087,1.5114 0.9087 1.5114c 0.0000,2.0183 -3.7260,3.5525 -3.7260 3.5525c 2.8311,0.8767 2.8311,3.2055 2.8311 3.2055c 0.0000,1.6895 -1.5662,2.9589 -1.5662 2.9589c -1.5662,1.2694 -3.6667,1.2694 -3.6667 1.2694c -1.7352,-0.0000 -3.3425,-0.7215 -3.3425 -0.7215ZM 248.5251,26.0822 ZM 250.4429,26.0822 l 1.3425,-1.3516 h 0.1918 c 1.3699,-0.0000 1.8904,-0.6256 1.8904 -0.6256c 0.5205,-0.6256 0.9589,-2.7991 0.9589 -2.7991l 1.5982,-8.0274 c -1.8813,-0.0000 -3.0411,1.0091 -3.0411 1.0091c -1.1598,1.0091 -1.1598,2.6347 -1.1598 2.6347v 0.2009 l -1.7717,0.8584 c 0.2283,-2.7945 2.1735,-4.1050 2.1735 -4.1050c 1.9452,-1.3105 5.8539,-1.3105 5.8539 -1.3105c 2.7580,-0.0000 3.9406,0.5936 3.9406 0.5936c 1.1826,0.5936 1.1826,1.9726 1.1826 1.9726c 0.0000,2.7854 -4.2009,3.8904 -4.2009 3.8904c 3.5251,1.1324 3.5251,3.1050 3.5251 3.1050c 0.0000,1.7626 -1.9269,2.9726 -1.9269 2.9726c -1.9269,1.2100 -4.7397,1.2100 -4.7397 1.2100l -2.1644,-0.0731 ZM 250.4429,26.0822 ZM 257.2374,18.8128 h 0.4749 c 1.6895,-0.0000 2.7945,-1.0000 2.7945 -1.0000c 1.1050,-1.0000 1.1050,-2.5342 1.1050 -2.5342c 0.0000,-2.1553 -3.0137,-2.1553 -3.0137 -2.1553h -0.2283 ZM 257.2374,18.8128 ZM 253.8402,24.8950 l 0.9498,0.2100 c 1.3973,0.3014 2.9406,0.3014 2.9406 0.3014c 3.1416,-0.0000 3.1416,-2.9315 3.1416 -2.9315c 0.0000,-1.4338 -0.9361,-2.2603 -0.9361 -2.2603c -0.9361,-0.8265 -2.5525,-0.8265 -2.5525 -0.8265h -0.2648 l -0.2009,1.0228 c -0.6027,2.9954 -3.0776,4.4840 -3.0776 4.4840ZM 263.2192,26.0822 ZM 272.8813,21.1233 h -0.1553 c -2.5936,5.1872 -5.0594,5.1872 -5.0594 5.1872c -1.4612,-0.0000 -1.4612,-1.7260 -1.4612 -1.7260c 0.0000,-0.4932 0.1461,-1.2329 0.1461 -1.2329l 0.8858,-4.4840 c 0.2100,-1.0502 0.2100,-1.3699 0.2100 -1.3699c 0.0000,-0.5662 -0.5388,-0.5662 -0.5388 -0.5662c -0.8950,-0.0000 -2.7215,2.0000 -2.7215 2.0000l 0.1644,-0.8402 c 1.9909,-2.1461 3.5890,-2.1461 3.5890 -2.1461c 1.3242,-0.0000 1.3242,1.3699 1.3242 1.3699c 0.0000,0.4566 -0.2192,1.5525 -0.2192 1.5525l -0.8950,4.4932 c -0.1187,0.6027 -0.1187,0.8584 -0.1187 0.8584c 0.0000,0.7397 0.5388,0.7397 0.5388 0.7397c 0.6849,-0.0000 2.0776,-1.6575 2.0776 -1.6575c 1.3927,-1.6575 2.5616,-3.8584 2.5616 -3.8584l 0.6575,-3.2785 l 1.9361,-0.1096 l -0.6758,2.8128 l -0.8950,4.5114 c -0.2100,1.0502 -0.2100,1.3699 -0.2100 1.3699c 0.0000,0.5753 0.5388,0.5753 0.5388 0.5753c 0.9041,-0.0000 2.7215,-2.0091 2.7215 -2.0091l -0.1644,0.8493 c -2.0000,2.1461 -3.5890,2.1461 -3.5890 2.1461c -1.3242,-0.0000 -1.3242,-1.3790 -1.3242 -1.3790c 0.0000,-0.4658 0.2192,-1.5525 0.2192 -1.5525ZM 276.2603,26.0822 ZM 284.3516,23.3151 l -0.1644,0.8493 c -2.0000,2.1461 -3.5890,2.1461 -3.5890 2.1461c -1.3151,-0.0000 -1.3151,-1.3790 -1.3151 -1.3790c 0.0000,-0.4658 0.2100,-1.5342 0.2100 -1.5342l 0.6301,-3.1781 c 0.2557,-1.3516 0.2557,-1.7991 0.2557 -1.7991c 0.0000,-0.7671 -0.5936,-0.7671 -0.5936 -0.7671c -0.4110,-0.0000 -1.4703,0.3196 -1.4703 0.3196l 0.1096,-0.5662 l 4.4658,-1.4612 l -0.6941,2.9224 l -0.8950,4.5114 c -0.2100,1.0594 -0.2100,1.3516 -0.2100 1.3516c 0.0000,0.5936 0.5388,0.5936 0.5388 0.5936c 0.9041,-0.0000 2.7215,-2.0091 2.7215 -2.0091ZM 284.3516,23.3151 ZM 281.0000,14.3562 l 0.6119,-1.2420 l 2.5753,-1.6804 l -0.7854,1.6804 ZM 283.3014,26.0822 ZM 290.6438,23.2694 l -0.1644,0.8402 c -2.1553,2.2009 -3.7078,2.2009 -3.7078 2.2009c -1.2968,-0.0000 -1.2968,-1.3973 -1.2968 -1.3973c 0.0000,-0.5753 0.1918,-1.5434 0.1918 -1.5434l 1.2511,-6.3014 c 0.6575,-3.3059 2.4795,-5.1461 2.4795 -5.1461c 1.8219,-1.8402 4.4338,-1.8402 4.4338 -1.8402c 0.9132,-0.0000 1.6438,0.1918 1.6438 0.1918l -1.2511,1.3059 c -1.0594,-0.4840 -1.8265,-0.4840 -1.8265 -0.4840c -1.4521,-0.0000 -2.1826,1.0594 -2.1826 1.0594c -0.7306,1.0594 -1.3151,4.0091 -1.3151 4.0091l -1.4338,7.2146 c -0.2100,1.0502 -0.2100,1.3699 -0.2100 1.3699c 0.0000,0.5753 0.5388,0.5753 0.5388 0.5753c 0.6119,-0.0000 2.3653,-1.6256 2.3653 -1.6256c 0.1370,-0.1279 0.4840,-0.4292 0.4840 -0.4292ZM 289.6484,26.0822 ZM 298.6347,21.1233 h -0.1644 c -1.0502,2.3014 -2.4932,3.7443 -2.4932 3.7443c -1.4429,1.4429 -2.7032,1.4429 -2.7032 1.4429c -1.9361,-0.0000 -1.9361,-2.4201 -1.9361 -2.4201c 0.0000,-1.6438 0.9452,-3.4429 0.9452 -3.4429c 0.9452,-1.7991 2.4429,-3.0228 2.4429 -3.0228c 1.0046,-0.8128 2.0091,-1.0913 2.0091 -1.0913c 1.0046,-0.2785 2.9132,-0.2785 2.9132 -0.2785c 0.5388,-1.8082 1.1233,-2.7626 1.1233 -2.7626c 0.5845,-0.9543 1.6438,-1.7854 1.6438 -1.7854c 1.8082,-1.4247 3.9909,-1.4247 3.9909 -1.4247c 0.9041,-0.0000 1.6438,0.1918 1.6438 0.1918l -1.2511,1.2968 c -1.0868,-0.4749 -1.8447,-0.4749 -1.8447 -0.4749c -1.4612,-0.0000 -2.2009,1.0639 -2.2009 1.0639c -0.7397,1.0639 -1.3242,3.9863 -1.3242 3.9863l -1.4338,7.2329 c -0.2192,1.0594 -0.2192,1.3516 -0.2192 1.3516c 0.0000,0.5936 0.5388,0.5936 0.5388 0.5936c 0.9132,-0.0000 2.7306,-2.0091 2.7306 -2.0091l -0.1735,0.8493 c -1.9909,2.1461 -3.5799,2.1461 -3.5799 2.1461c -1.3242,-0.0000 -1.3242,-1.3790 -1.3242 -1.3790c 0.0000,-0.4475 0.2192,-1.5525 0.2192 -1.5525ZM 298.6347,21.1233 ZM 299.3653,17.4703 c -1.1324,-0.5114 -2.2831,-0.5114 -2.2831 -0.5114c -1.6530,-0.0000 -2.6484,2.1005 -2.6484 2.1005c -1.1781,2.4840 -1.1781,4.4658 -1.1781 4.4658c 0.0000,1.4338 0.8493,1.4338 0.8493 1.4338c 0.7854,-0.0000 2.2603,-1.6530 2.2603 -1.6530c 1.4749,-1.6530 2.5890,-3.7717 2.5890 -3.7717ZM 308.3516,26.0822 ZM 314.9909,19.8265 l 0.6484,-0.7306 h 0.9680 l 1.1507,-5.8174 c -1.8721,-0.0000 -3.0365,1.0091 -3.0365 1.0091c -1.1644,1.0091 -1.1644,2.6347 -1.1644 2.6347l 0.0091,0.2009 l -1.7808,0.8584 c 0.2374,-2.8037 2.1781,-4.1096 2.1781 -4.1096c 1.9406,-1.3059 5.8584,-1.3059 5.8584 -1.3059h 5.2694 l -0.8219,2.5845 h -0.5845 c 0.1187,-0.3653 0.1187,-0.7215 0.1187 -0.7215c 0.0000,-1.1872 -3.7352,-1.1872 -3.7352 -1.1872h -0.3927 l -1.1598,5.8539 h 3.9817 l -0.9041,0.9315 c -1.4612,-0.2009 -2.7763,-0.2009 -2.7763 -0.2009h -0.4475 l -0.5297,2.6758 c -0.6667,3.3790 -2.5799,5.3973 -2.5799 5.3973c -1.9132,2.0183 -4.4521,2.0183 -4.4521 2.0183c -1.3699,-0.0000 -2.4475,-1.0320 -2.4475 -1.0320l 1.3425,-1.3699 c 0.7215,1.4977 2.3196,1.4977 2.3196 1.4977c 1.4612,-0.0000 2.2968,-1.3196 2.2968 -1.3196c 0.8356,-1.3196 1.5023,-4.6712 1.5023 -4.6712l 0.6393,-3.1963 h -1.4703 ZM 322.6804,26.0822 ZM 331.6667,21.1233 h -0.1644 c -1.0320,2.2922 -2.4840,3.7397 -2.4840 3.7397c -1.4521,1.4475 -2.7215,1.4475 -2.7215 1.4475c -1.9269,-0.0000 -1.9269,-2.4110 -1.9269 -2.4110c 0.0000,-2.6575 2.1187,-5.2055 2.1187 -5.2055c 2.1918,-2.6393 5.3516,-2.6393 5.3516 -2.6393c 1.3059,-0.0000 2.7306,0.1096 2.7306 0.1096l -0.6575,2.7032 l -0.8858,4.5114 c -0.2100,1.0594 -0.2100,1.3699 -0.2100 1.3699c 0.0000,0.5753 0.5388,0.5753 0.5388 0.5753c 0.9132,-0.0000 2.7215,-2.0091 2.7215 -2.0091l -0.1644,0.8493 c -2.0000,2.1461 -3.5890,2.1461 -3.5890 2.1461c -1.3242,-0.0000 -1.3242,-1.3790 -1.3242 -1.3790c 0.0000,-0.4566 0.2192,-1.5525 0.2192 -1.5525ZM 331.6667,21.1233 ZM 332.3973,17.4703 c -1.1507,-0.5114 -2.2740,-0.5114 -2.2740 -0.5114c -1.6621,-0.0000 -2.6575,2.1005 -2.6575 2.1005c -1.1689,2.4840 -1.1689,4.4658 -1.1689 4.4658c 0.0000,1.4338 0.8402,1.4338 0.8402 1.4338c 0.7854,-0.0000 2.2603,-1.6484 2.2603 -1.6484c 1.4749,-1.6484 2.5890,-3.7671 2.5890 -3.7671ZM 335.1826,26.0822 ZM 337.7580,26.1918 l 0.6758,-2.8128 l 0.8858,-4.4658 c 0.1370,-0.6758 0.1370,-1.1689 0.1370 -1.1689c 0.0000,-0.7854 -0.5479,-0.7854 -0.5479 -0.7854c -0.9680,-0.0000 -2.7671,2.0639 -2.7671 2.0639l 0.1644,-0.8128 c 2.1096,-2.2740 3.6621,-2.2740 3.6621 -2.2740c 1.3151,-0.0000 1.3151,1.5068 1.3151 1.5068c 0.0000,0.6667 -0.1644,1.4795 -0.1644 1.4795l -0.4384,2.2009 h 0.1187 c 1.0868,-2.2831 2.5708,-3.7306 2.5708 -3.7306c 1.4840,-1.4475 2.7169,-1.4475 2.7169 -1.4475c 0.6393,-0.0000 1.1416,0.2831 1.1416 0.2831l -1.2146,1.6438 c -0.5388,-0.3562 -0.9132,-0.3562 -0.9132 -0.3562c -1.7808,-0.0000 -4.7397,5.2329 -4.7397 5.2329l -0.6667,3.3333 ZM 345.7123,26.0822 ZM 348.1689,26.1918 l 0.6758,-2.8128 l 0.8950,-4.5114 c 0.2100,-1.0502 0.2100,-1.3699 0.2100 -1.3699c 0.0000,-0.5662 -0.5388,-0.5662 -0.5388 -0.5662c -0.8950,-0.0000 -2.7215,2.0000 -2.7215 2.0000l 0.1644,-0.8402 c 1.9909,-2.1461 3.5890,-2.1461 3.5890 -2.1461c 1.3151,-0.0000 1.3151,1.3790 1.3151 1.3790c 0.0000,0.4658 -0.2100,1.5434 -0.2100 1.5434l -0.4475,2.2557 h 0.1279 c 1.1689,-2.3744 2.5525,-3.7763 2.5525 -3.7763c 1.3836,-1.4018 2.5525,-1.4018 2.5525 -1.4018c 0.6119,-0.0000 1.0274,0.4840 1.0274 0.4840c 0.4155,0.4840 0.4155,1.2055 0.4155 1.2055c 0.0000,0.5297 -0.1553,1.2694 -0.1553 1.2694l -0.4384,2.2192 h 0.1279 c 1.0137,-2.2831 2.3927,-3.7306 2.3927 -3.7306c 1.3790,-1.4475 2.5297,-1.4475 2.5297 -1.4475c 1.6164,-0.0000 1.6164,1.7169 1.6164 1.7169c 0.0000,0.5114 -0.1461,1.2603 -0.1461 1.2603l -0.8858,4.4566 c -0.2100,1.0502 -0.2100,1.3699 -0.2100 1.3699c 0.0000,0.5753 0.5388,0.5753 0.5388 0.5753c 0.9041,-0.0000 2.7215,-2.0091 2.7215 -2.0091l -0.1644,0.8493 c -1.9909,2.1461 -3.5890,2.1461 -3.5890 2.1461c -1.3242,-0.0000 -1.3242,-1.3790 -1.3242 -1.3790c 0.0000,-0.4475 0.2192,-1.5525 0.2192 -1.5525l 0.8858,-4.4566 c 0.1279,-0.6027 0.1279,-0.8767 0.1279 -0.8767c 0.0000,-0.7580 -0.5662,-0.7580 -0.5662 -0.7580c -1.5890,-0.0000 -4.6027,5.4886 -4.6027 5.4886l -0.6849,3.3059 l -1.7900,0.1096 l 1.4338,-7.2511 c 0.1187,-0.6027 0.1187,-0.8767 0.1187 -0.8767c 0.0000,-0.7763 -0.5479,-0.7763 -0.5479 -0.7763c -0.6849,-0.0000 -2.0228,1.6073 -2.0228 1.6073c -1.3379,1.6073 -2.6073,3.9543 -2.6073 3.9543l -0.6667,3.2329 ZM 364.8630,26.0822 ZM 365.4932,25.7717 l 1.1963,-1.2329 c 1.1872,0.8676 2.4201,0.8676 2.4201 0.8676c 0.7580,-0.0000 1.2785,-0.3973 1.2785 -0.3973c 0.5205,-0.3973 0.5205,-0.9817 0.5205 -0.9817c 0.0000,-0.6484 -1.0320,-1.7717 -1.0320 -1.7717l -0.8311,-0.9132 c -1.2146,-1.3333 -1.2146,-2.2283 -1.2146 -2.2283c 0.0000,-1.2420 1.1781,-2.2055 1.1781 -2.2055c 1.1781,-0.9635 2.6941,-0.9635 2.6941 -0.9635c 0.8311,-0.0000 1.8630,0.3470 1.8630 0.3470l -0.4018,2.0183 h -0.5753 l 0.0274,-0.1553 c 0.0183,-0.0822 0.0183,-0.1918 0.0183 -0.1918c 0.0000,-1.2329 -1.5890,-1.2329 -1.5890 -1.2329c -1.7808,-0.0000 -1.7808,1.4247 -1.7808 1.4247c 0.0000,0.7215 1.0594,1.9178 1.0594 1.9178l 0.7489,0.8311 c 1.2237,1.3790 1.2237,2.2648 1.2237 2.2648c 0.0000,1.2237 -1.2968,2.1826 -1.2968 2.1826c -1.2968,0.9589 -2.9498,0.9589 -2.9498 0.9589c -1.1598,-0.0000 -2.5571,-0.5388 -2.5571 -0.5388Z"/>
  </g>
</svg>