<?xml version="1.0" encoding="UTF-8"?>
<!DOCTYPE svg PUBLIC "-//W3C//DTD SVG 1.1//EN"
    "http://www.w3.org/Graphics/SVG/1.1/DTD/svg11.dtd">
<svg stroke="rgb(0,0,0)" xmlns="http://www.w3.org/2000/svg" font-size="1" width="600.0000" stroke-opacity="1" xmlns:xlink="http://www.w3.org/1999/xlink" viewBox="0.0 0.0 600.0 40.0" height="40.0000" version="1.1">
  <defs>
  </defs>
  <defs>
    <linearGradient gradientTransform="matrix(2.0000,-0.0000,0.0000,-2.0000,300.0000,20.0000)" y1="-8.0000" spreadMethod="pad" id="gradient0" x1="0.0000" y2="8.0000" gradientUnits="userSpaceOnUse" x2="0.0000">
      <stop stop-color="rgb(51,75,27)" stop-opacity="1.0000" offset="0.0000"/>
      <stop stop-color="rgb(142,167,115)" stop-opacity="1.0000" offset="1.0000"/>
    </linearGradient>
  </defs>
  <g fill="url(#gradient0)" stroke="rgb(0,0,0)" stroke-linecap="butt" stroke-width="0.6196773353931867" stroke-miterlimit="10.0" fill-opacity="1" stroke-opacity="1.0" stroke-linejoin="miter">
    <path d="M 600.0000,24.0000 v -8.0000 c 0.0000,-8.8366 -7.1634,-16.0000 -16.0000 -16.0000h -568.0000 c -8.8366,-0.0000 -16.0000,7.1634 -16.0000 16.0000v 8.0000 c -0.0000,8.8366 7.1634,16.0000 16.0000 16.0000h 568.0000 c 8.8366,0.0000 16.0000,-7.1634 16.0000 -16.0000Z"/>
  </g>
  <g fill="rgb(255,255,255)" stroke="rgb(255,255,255)" stroke-linecap="butt" stroke-width="0.6196773353931867" font-size="24.0px" stroke-miterlimit="10.0" fill-opacity="1.0" stroke-opacity="1.0" stroke-linejoin="miter">
    <path d="M 223.3927,24.2831 ZM 224.5160,24.2831 l 0.4932,-1.4612 c 6.8676,-3.6712 6.8676,-6.1918 6.8676 -6.1918c 0.0000,-0.8128 -0.5799,-1.3699 -0.5799 -1.3699c -0.5799,-0.5571 -1.4292,-0.5571 -1.4292 -0.5571c -2.2009,-0.0000 -2.7763,2.0274 -2.7763 2.0274h -0.5571 l 0.2831,-2.0913 c 1.9269,-0.4932 3.2968,-0.4932 3.2968 -0.4932c 1.6986,-0.0000 2.6986,0.6438 2.6986 0.6438c 1.0000,0.6438 1.0000,1.7306 1.0000 1.7306c 0.0000,1.1689 -0.9406,2.0365 -0.9406 2.0365c -0.9406,0.8676 -4.4932,2.9680 -4.4932 2.9680l -2.2100,1.2968 h 6.8950 l -0.5753,1.4612 h -7.9726 ZM 246.4429,24.2831 ZM 247.1735,23.4429 l 1.3059,-1.3425 c 0.9224,1.5160 2.5662,1.5160 2.5662 1.5160c 1.0776,-0.0000 1.9087,-0.9132 1.9087 -0.9132c 0.8311,-0.9132 1.1324,-2.4201 1.1324 -2.4201l 1.7260,-8.6758 c -0.4658,-0.0731 -0.6484,-0.0731 -0.6484 -0.0731c -1.5068,-0.0000 -2.5114,1.0731 -2.5114 1.0731c -1.0046,1.0731 -1.0046,2.6712 -1.0046 2.6712l -1.7717,0.8676 c 0.1918,-2.5479 2.0365,-3.9635 2.0365 -3.9635c 1.8447,-1.4155 4.9589,-1.4155 4.9589 -1.4155h 0.7397 c 1.6895,4.7032 2.4658,9.6712 2.4658 9.6712l 5.9909,-9.6712 l 1.9543,-0.2283 l -0.6941,2.9315 l -1.4886,7.4612 c -0.1918,0.9954 -0.1918,1.5890 -0.1918 1.5890c 0.0000,0.8037 0.9772,0.8037 0.9772 0.8037c 0.4840,-0.0000 1.2968,-0.1005 1.2968 -0.1005l -0.1187,0.5845 l -4.5114,0.8950 l 2.3653,-11.8904 l -6.2466,10.0091 l -0.9406,0.1461 v -0.2648 c 0.0000,-3.5708 -1.7443,-8.8676 -1.7443 -8.8676l -0.7489,3.7260 c -1.3699,6.8950 -5.9726,6.8950 -5.9726 6.8950c -1.6073,-0.0000 -2.8311,-1.0137 -2.8311 -1.0137ZM 268.1142,24.2831 ZM 276.2055,21.5160 l -0.1644,0.8493 c -2.0000,2.1461 -3.5890,2.1461 -3.5890 2.1461c -1.3151,-0.0000 -1.3151,-1.3790 -1.3151 -1.3790c 0.0000,-0.4658 0.2100,-1.5342 0.2100 -1.5342l 0.6301,-3.1781 c 0.2557,-1.3516 0.2557,-1.7991 0.2557 -1.7991c 0.0000,-0.7671 -0.5936,-0.7671 -0.5936 -0.7671c -0.4110,-0.0000 -1.4703,0.3196 -1.4703 0.3196l 0.1096,-0.5662 l 4.4658,-1.4612 l -0.6941,2.9224 l -0.8950,4.5114 c -0.2100,1.0594 -0.2100,1.3516 -0.2100 1.3516c 0.0000,0.5936 0.5388,0.5936 0.5388 0.5936c 0.9041,-0.0000 2.7215,-2.0091 2.7215 -2.0091ZM 276.2055,21.5160 ZM 272.8539,12.5571 l 0.6119,-1.2420 l 2.5753,-1.6804 l -0.7854,1.6804 ZM 275.1553,24.2831 ZM 277.6119,24.3927 l 0.6758,-2.8128 l 0.8950,-4.5114 c 0.2100,-1.0502 0.2100,-1.3699 0.2100 -1.3699c 0.0000,-0.5662 -0.5388,-0.5662 -0.5388 -0.5662c -0.8950,-0.0000 -2.7215,2.0000 -2.7215 2.0000l 0.1644,-0.8402 c 1.9909,-2.1461 3.5890,-2.1461 3.5890 -2.1461c 1.3151,-0.0000 1.3151,1.3699 1.3151 1.3699c 0.0000,0.4658 -0.2100,1.5525 -0.2100 1.5525l -0.4475,2.2557 h 0.1370 c 1.1416,-2.3379 2.5799,-3.7580 2.5799 -3.7580c 1.4384,-1.4201 2.6804,-1.4201 2.6804 -1.4201c 1.4977,-0.0000 1.4977,1.6621 1.4977 1.6621c 0.0000,0.5388 -0.1553,1.3151 -0.1553 1.3151l -0.8858,4.4566 c -0.2100,1.0594 -0.2100,1.3699 -0.2100 1.3699c 0.0000,0.5753 0.5388,0.5753 0.5388 0.5753c 0.9132,-0.0000 2.7306,-2.0091 2.7306 -2.0091l -0.1735,0.8493 c -1.9909,2.1461 -3.5890,2.1461 -3.5890 2.1461c -1.3151,-0.0000 -1.3151,-1.3790 -1.3151 -1.3790c 0.0000,-0.4566 0.2192,-1.5525 0.2192 -1.5525l 0.8858,-4.4749 c 0.1096,-0.5205 0.1096,-0.8767 0.1096 -0.8767c 0.0000,-0.7397 -0.5479,-0.7397 -0.5479 -0.7397c -1.7443,-0.0000 -4.8402,5.5342 -4.8402 5.5342l -0.6667,3.2603 ZM 288.4521,24.2831 ZM 298.2877,21.7900 l -0.1370,0.7032 c -2.9041,2.0183 -4.9498,2.0183 -4.9498 2.0183c -1.2968,-0.0000 -2.1050,-0.9087 -2.1050 -0.9087c -0.8082,-0.9087 -0.8082,-2.3516 -0.8082 -2.3516c 0.0000,-2.5753 1.9726,-4.8447 1.9726 -4.8447c 1.9726,-2.2694 4.2100,-2.2694 4.2100 -2.2694c 0.8128,-0.0000 1.3151,0.5479 1.3151 0.5479c 0.5023,0.5479 0.5023,1.4247 0.5023 1.4247c 0.0000,1.7534 -1.7900,3.0137 -1.7900 3.0137c -1.7900,1.2603 -4.2740,1.2603 -4.2740 1.2603l -0.0091,0.4110 c 0.0000,2.6667 1.9543,2.6667 1.9543 2.6667c 1.6895,-0.0000 4.1187,-1.6712 4.1187 -1.6712ZM 298.2877,21.7900 ZM 292.2420,19.8174 c 2.0457,-0.1644 3.1963,-1.0548 3.1963 -1.0548c 1.1507,-0.8904 1.1507,-2.3059 1.1507 -2.3059c 0.0000,-1.3973 -1.0137,-1.3973 -1.0137 -1.3973c -1.0959,-0.0000 -2.1187,1.4566 -2.1187 1.4566c -1.0228,1.4566 -1.2146,3.3014 -1.2146 3.3014ZM 304.7900,24.2831 ZM 316.9543,23.4521 c -2.9041,1.1689 -5.0959,1.1689 -5.0959 1.1689c -2.3562,-0.0000 -3.6530,-1.3242 -3.6530 -1.3242c -1.2968,-1.3242 -1.2968,-3.7260 -1.2968 -3.7260c 0.0000,-3.8082 2.4886,-6.4795 2.4886 -6.4795c 2.4886,-2.6712 6.0228,-2.6712 6.0228 -2.6712c 2.1096,-0.0000 3.9178,0.5388 3.9178 0.5388l -0.7763,2.5114 h -0.5753 c 0.0913,-0.4292 0.0913,-0.7032 0.0913 -0.7032c 0.0000,-0.7945 -0.8676,-1.2877 -0.8676 -1.2877c -0.8676,-0.4932 -2.2557,-0.4932 -2.2557 -0.4932c -2.0913,-0.0000 -3.6621,1.8630 -3.6621 1.8630c -1.0411,1.2329 -1.6986,3.0594 -1.6986 3.0594c -0.6575,1.8265 -0.6575,3.4612 -0.6575 3.4612c 0.0000,1.9726 1.0365,3.1050 1.0365 3.1050c 1.0365,1.1324 2.8447,1.1324 2.8447 1.1324c 2.0274,-0.0000 4.3105,-1.0228 4.3105 -1.0228ZM 317.5753,24.2831 ZM 322.2055,24.5114 c -1.1963,-0.0000 -1.9954,-0.9361 -1.9954 -0.9361c -0.7991,-0.9361 -0.7991,-2.3333 -0.7991 -2.3333c 0.0000,-2.6301 1.9909,-4.8630 1.9909 -4.8630c 1.9909,-2.2329 4.3379,-2.2329 4.3379 -2.2329c 1.2694,-0.0000 2.0913,0.9132 2.0913 0.9132c 0.8219,0.9132 0.8219,2.3288 0.8219 2.3288c 0.0000,2.7306 -1.9909,4.9269 -1.9909 4.9269c -1.9909,2.1963 -4.4566,2.1963 -4.4566 2.1963ZM 322.2055,24.5114 ZM 323.2466,23.7169 c 1.3516,-0.0000 2.3790,-1.7397 2.3790 -1.7397c 1.0274,-1.7397 1.0274,-4.0411 1.0274 -4.0411c 0.0000,-3.0228 -1.8447,-3.0228 -1.8447 -3.0228c -1.3059,-0.0000 -2.3516,1.7945 -2.3516 1.7945c -1.0457,1.7945 -1.0457,4.0411 -1.0457 4.0411c 0.0000,2.9680 1.8356,2.9680 1.8356 2.9680ZM 328.4703,24.2831 ZM 324.5890,30.2009 l 1.2329,-1.3059 c 0.9315,0.4566 1.9361,0.4566 1.9361 0.4566c 2.3288,-0.0000 3.0959,-3.8539 3.0959 -3.8539l 1.4064,-7.0776 c 0.2466,-1.3516 0.2466,-1.7991 0.2466 -1.7991c 0.0000,-0.7671 -0.5845,-0.7671 -0.5845 -0.7671c -0.4201,-0.0000 -1.4795,0.3196 -1.4795 0.3196l 0.1187,-0.5662 l 4.4566,-1.4612 l -0.6941,2.9498 l -0.4475,2.2283 h 0.1553 c 1.0411,-2.3014 2.4886,-3.7397 2.4886 -3.7397c 1.4475,-1.4384 2.7169,-1.4384 2.7169 -1.4384c 1.9452,-0.0000 1.9452,2.4110 1.9452 2.4110c 0.0000,2.8219 -2.2237,5.3425 -2.2237 5.3425c -2.2237,2.5205 -4.7169,2.5205 -4.7169 2.5205c -0.2557,-0.0000 -1.0411,-0.1005 -1.0411 -0.1005c -0.1005,-0.0091 -0.3105,-0.0365 -0.3105 -0.0365c -0.7215,2.9498 -2.4977,4.5160 -2.4977 4.5160c -1.7763,1.5662 -4.4064,1.5662 -4.4064 1.5662c -0.6575,-0.0000 -1.3973,-0.1644 -1.3973 -0.1644ZM 324.5890,30.2009 ZM 333.1461,22.9954 c 1.1416,0.5023 2.2831,0.5023 2.2831 0.5023c 1.6530,-0.0000 2.6484,-2.1005 2.6484 -2.1005c 1.1781,-2.4840 1.1781,-4.4658 1.1781 -4.4658c 0.0000,-1.4338 -0.8493,-1.4338 -0.8493 -1.4338c -0.7763,-0.0000 -2.2466,1.6484 -2.2466 1.6484c -1.4703,1.6484 -2.6027,3.7763 -2.6027 3.7763ZM 340.8904,24.2831 ZM 337.0091,30.2009 l 1.2329,-1.3059 c 0.9315,0.4566 1.9361,0.4566 1.9361 0.4566c 2.3288,-0.0000 3.0959,-3.8539 3.0959 -3.8539l 1.4064,-7.0776 c 0.2466,-1.3516 0.2466,-1.7991 0.2466 -1.7991c 0.0000,-0.7671 -0.5845,-0.7671 -0.5845 -0.7671c -0.4201,-0.0000 -1.4795,0.3196 -1.4795 0.3196l 0.1187,-0.5662 l 4.4566,-1.4612 l -0.6941,2.9498 l -0.4475,2.2283 h 0.1553 c 1.0411,-2.3014 2.4886,-3.7397 2.4886 -3.7397c 1.4475,-1.4384 2.7169,-1.4384 2.7169 -1.4384c 1.9452,-0.0000 1.9452,2.4110 1.9452 2.4110c 0.0000,2.8219 -2.2237,5.3425 -2.2237 5.3425c -2.2237,2.5205 -4.7169,2.5205 -4.7169 2.5205c -0.2557,-0.0000 -1.0411,-0.1005 -1.0411 -0.1005c -0.1005,-0.0091 -0.3105,-0.0365 -0.3105 -0.0365c -0.7215,2.9498 -2.4977,4.5160 -2.4977 4.5160c -1.7763,1.5662 -4.4064,1.5662 -4.4064 1.5662c -0.6575,-0.0000 -1.3973,-0.1644 -1.3973 -0.1644ZM 337.0091,30.2009 ZM 345.5662,22.9954 c 1.1416,0.5023 2.2831,0.5023 2.2831 0.5023c 1.6530,-0.0000 2.6484,-2.1005 2.6484 -2.1005c 1.1781,-2.4840 1.1781,-4.4658 1.1781 -4.4658c 0.0000,-1.4338 -0.8493,-1.4338 -0.8493 -1.4338c -0.7763,-0.0000 -2.2466,1.6484 -2.2466 1.6484c -1.4703,1.6484 -2.6027,3.7763 -2.6027 3.7763ZM 353.3105,24.2831 ZM 363.1461,21.7900 l -0.1370,0.7032 c -2.9041,2.0183 -4.9498,2.0183 -4.9498 2.0183c -1.2968,-0.0000 -2.1050,-0.9087 -2.1050 -0.9087c -0.8082,-0.9087 -0.8082,-2.3516 -0.8082 -2.3516c 0.0000,-2.5753 1.9726,-4.8447 1.9726 -4.8447c 1.9726,-2.2694 4.2100,-2.2694 4.2100 -2.2694c 0.8128,-0.0000 1.3151,0.5479 1.3151 0.5479c 0.5023,0.5479 0.5023,1.4247 0.5023 1.4247c 0.0000,1.7534 -1.7900,3.0137 -1.7900 3.0137c -1.7900,1.2603 -4.2740,1.2603 -4.2740 1.2603l -0.0091,0.4110 c 0.0000,2.6667 1.9543,2.6667 1.9543 2.6667c 1.6895,-0.0000 4.1187,-1.6712 4.1187 -1.6712ZM 363.1461,21.7900 ZM 357.1005,19.8174 c 2.0457,-0.1644 3.1963,-1.0548 3.1963 -1.0548c 1.1507,-0.8904 1.1507,-2.3059 1.1507 -2.3059c 0.0000,-1.3973 -1.0137,-1.3973 -1.0137 -1.3973c -1.0959,-0.0000 -2.1187,1.4566 -2.1187 1.4566c -1.0228,1.4566 -1.2146,3.3014 -1.2146 3.3014ZM 363.4384,24.2831 ZM 366.0137,24.3927 l 0.6758,-2.8128 l 0.8858,-4.4658 c 0.1370,-0.6758 0.1370,-1.1689 0.1370 -1.1689c 0.0000,-0.7854 -0.5479,-0.7854 -0.5479 -0.7854c -0.9680,-0.0000 -2.7671,2.0639 -2.7671 2.0639l 0.1644,-0.8128 c 2.1096,-2.2740 3.6621,-2.2740 3.6621 -2.2740c 1.3151,-0.0000 1.3151,1.5068 1.3151 1.5068c 0.0000,0.6667 -0.1644,1.4795 -0.1644 1.4795l -0.4384,2.2009 h 0.1187 c 1.0868,-2.2831 2.5708,-3.7306 2.5708 -3.7306c 1.4840,-1.4475 2.7169,-1.4475 2.7169 -1.4475c 0.6393,-0.0000 1.1416,0.2831 1.1416 0.2831l -1.2146,1.6438 c -0.5388,-0.3562 -0.9132,-0.3562 -0.9132 -0.3562c -1.7808,-0.0000 -4.7397,5.2329 -4.7397 5.2329l -0.6667,3.3333 Z"/>
  </g>
</svg>