<?xml version="1.0" encoding="UTF-8"?>
<!DOCTYPE svg PUBLIC "-//W3C//DTD SVG 1.1//EN"
    "http://www.w3.org/Graphics/SVG/1.1/DTD/svg11.dtd">
<svg stroke="rgb(0,0,0)" xmlns="http://www.w3.org/2000/svg" font-size="1" width="600.0000" stroke-opacity="1" xmlns:xlink="http://www.w3.org/1999/xlink" viewBox="0.0 0.0 600.0 40.0" height="40.0000" version="1.1">
  <defs>
  </defs>
  <defs>
    <linearGradient gradientTransform="matrix(2.0000,-0.0000,0.0000,-2.0000,300.0000,20.0000)" y1="-8.0000" spreadMethod="pad" id="gradient0" x1="0.0000" y2="8.0000" gradientUnits="userSpaceOnUse" x2="0.0000">
      <stop stop-color="rgb(51,75,27)" stop-opacity="1.0000" offset="0.0000"/>
      <stop stop-color="rgb(142,167,115)" stop-opacity="1.0000" offset="1.0000"/>
    </linearGradient>
  </defs>
  <g fill="url(#gradient0)" stroke="rgb(0,0,0)" stroke-linecap="butt" stroke-width="0.6196773353931867" stroke-miterlimit="10.0" fill-opacity="1" stroke-opacity="1.0" stroke-linejoin="miter">
    <path d="M 600.0000,24.0000 v -8.0000 c 0.0000,-8.8366 -7.1634,-16.0000 -16.0000 -16.0000h -568.0000 c -8.8366,-0.0000 -16.0000,7.1634 -16.0000 16.0000v 8.0000 c -0.0000,8.8366 7.1634,16.0000 16.0000 16.0000h 568.0000 c 8.8366,0.0000 16.0000,-7.1634 16.0000 -16.0000Z"/>
  </g>
  <g fill="rgb(255,255,255)" stroke="rgb(255,255,255)" stroke-linecap="butt" stroke-width="0.6196773353931867" font-size="24.0px" stroke-miterlimit="10.0" fill-opacity="1.0" stroke-opacity="1.0" stroke-linejoin="miter">
    <path d="M 178.0228,24.9589 ZM 179.9406,24.9589 l 1.3516,-1.3516 h 0.1553 c 1.3881,-0.0000 1.9132,-0.5753 1.9132 -0.5753c 0.5251,-0.5753 0.9087,-2.5297 0.9087 -2.5297l 1.6621,-8.3470 c -1.8813,-0.0000 -3.0411,1.0091 -3.0411 1.0091c -1.1598,1.0091 -1.1598,2.6347 -1.1598 2.6347v 0.2009 l -1.7717,0.8584 c 0.2283,-2.7671 2.1735,-4.0913 2.1735 -4.0913c 1.9452,-1.3242 5.7626,-1.3242 5.7626 -1.3242h 5.3699 l -0.8128,2.5845 h -0.5753 c 0.0731,-0.3562 0.0731,-0.6393 0.0731 -0.6393c 0.0000,-0.7215 -0.8265,-0.9954 -0.8265 -0.9954c -0.8265,-0.2740 -3.0091,-0.2740 -3.0091 -0.2740h -0.2831 l -1.0594,5.4064 h 4.0731 l -0.9315,0.9406 c -2.0731,-0.2648 -2.8219,-0.2648 -2.8219 -0.2648h -0.4566 l -0.1918,0.9863 c -0.3196,1.6621 -0.9726,2.6347 -0.9726 2.6347c -0.6530,0.9726 -2.0959,1.9315 -2.0959 1.9315l 4.3836,0.1735 l 0.9589,0.0274 c 1.4886,-0.0000 2.7854,-1.0320 2.7854 -1.0320l -0.1461,0.7397 c -1.6164,1.6347 -3.0411,1.6347 -3.0411 1.6347l -0.4201,-0.0091 ZM 191.7763,24.9589 ZM 194.2329,25.0685 l 0.6758,-2.8128 l 0.8950,-4.5114 c 0.2100,-1.0502 0.2100,-1.3699 0.2100 -1.3699c 0.0000,-0.5662 -0.5388,-0.5662 -0.5388 -0.5662c -0.8950,-0.0000 -2.7215,2.0000 -2.7215 2.0000l 0.1644,-0.8402 c 1.9909,-2.1461 3.5890,-2.1461 3.5890 -2.1461c 1.3151,-0.0000 1.3151,1.3699 1.3151 1.3699c 0.0000,0.4658 -0.2100,1.5525 -0.2100 1.5525l -0.4475,2.2557 h 0.1370 c 1.1416,-2.3379 2.5799,-3.7580 2.5799 -3.7580c 1.4384,-1.4201 2.6804,-1.4201 2.6804 -1.4201c 1.4977,-0.0000 1.4977,1.6621 1.4977 1.6621c 0.0000,0.5388 -0.1553,1.3151 -0.1553 1.3151l -0.8858,4.4566 c -0.2100,1.0594 -0.2100,1.3699 -0.2100 1.3699c 0.0000,0.5753 0.5388,0.5753 0.5388 0.5753c 0.9132,-0.0000 2.7306,-2.0091 2.7306 -2.0091l -0.1735,0.8493 c -1.9909,2.1461 -3.5890,2.1461 -3.5890 2.1461c -1.3151,-0.0000 -1.3151,-1.3790 -1.3151 -1.3790c 0.0000,-0.4566 0.2192,-1.5525 0.2192 -1.5525l 0.8858,-4.4749 c 0.1096,-0.5205 0.1096,-0.8767 0.1096 -0.8767c 0.0000,-0.7397 -0.5479,-0.7397 -0.5479 -0.7397c -1.7443,-0.0000 -4.8402,5.5342 -4.8402 5.5342l -0.6667,3.2603 ZM 205.0731,24.9589 ZM 214.0594,20.0000 h -0.1644 c -1.0320,2.2922 -2.4840,3.7397 -2.4840 3.7397c -1.4521,1.4475 -2.7215,1.4475 -2.7215 1.4475c -1.9269,-0.0000 -1.9269,-2.4110 -1.9269 -2.4110c 0.0000,-2.6575 2.1187,-5.2055 2.1187 -5.2055c 2.1918,-2.6393 5.3516,-2.6393 5.3516 -2.6393c 1.3059,-0.0000 2.7306,0.1096 2.7306 0.1096l -0.6575,2.7032 l -0.8858,4.5114 c -0.2100,1.0594 -0.2100,1.3699 -0.2100 1.3699c 0.0000,0.5753 0.5388,0.5753 0.5388 0.5753c 0.9132,-0.0000 2.7215,-2.0091 2.7215 -2.0091l -0.1644,0.8493 c -2.0000,2.1461 -3.5890,2.1461 -3.5890 2.1461c -1.3242,-0.0000 -1.3242,-1.3790 -1.3242 -1.3790c 0.0000,-0.4566 0.2192,-1.5525 0.2192 -1.5525ZM 214.0594,20.0000 ZM 214.7900,16.3470 c -1.1507,-0.5114 -2.2740,-0.5114 -2.2740 -0.5114c -1.6621,-0.0000 -2.6575,2.1005 -2.6575 2.1005c -1.1689,2.4840 -1.1689,4.4658 -1.1689 4.4658c 0.0000,1.4338 0.8402,1.4338 0.8402 1.4338c 0.7854,-0.0000 2.2603,-1.6484 2.2603 -1.6484c 1.4749,-1.6484 2.5890,-3.7671 2.5890 -3.7671ZM 217.5753,24.9589 ZM 219.2740,24.9589 l 0.6484,-2.7032 l 1.2603,-6.3105 c 0.6575,-3.3059 2.4795,-5.1461 2.4795 -5.1461c 1.8219,-1.8402 4.4338,-1.8402 4.4338 -1.8402c 0.9041,-0.0000 1.6438,0.1918 1.6438 0.1918l -1.2603,1.3059 c -1.0594,-0.4840 -1.8265,-0.4840 -1.8265 -0.4840c -1.4521,-0.0000 -2.1781,1.0548 -2.1781 1.0548c -0.7260,1.0548 -1.3105,4.0137 -1.3105 4.0137l -0.9863,4.9589 h 0.1553 c 1.0502,-2.3014 2.4977,-3.7397 2.4977 -3.7397c 1.4475,-1.4384 2.7169,-1.4384 2.7169 -1.4384c 1.9361,-0.0000 1.9361,2.4110 1.9361 2.4110c 0.0000,2.6667 -2.1096,5.2146 -2.1096 5.2146c -2.1735,2.6210 -5.3059,2.6210 -5.3059 2.6210c -0.4658,-0.0000 -1.1781,-0.0274 -1.1781 -0.0274ZM 219.2740,24.9589 ZM 221.4475,23.6712 c 1.1324,0.5023 2.2831,0.5023 2.2831 0.5023c 1.6530,-0.0000 2.6484,-2.1005 2.6484 -2.1005c 1.1781,-2.4840 1.1781,-4.4658 1.1781 -4.4658c 0.0000,-1.4338 -0.8493,-1.4338 -0.8493 -1.4338c -0.7763,-0.0000 -2.2511,1.6484 -2.2511 1.6484c -1.4749,1.6484 -2.5982,3.7763 -2.5982 3.7763ZM 229.0731,24.9589 ZM 236.4155,22.1461 l -0.1644,0.8402 c -2.1553,2.2009 -3.7078,2.2009 -3.7078 2.2009c -1.2968,-0.0000 -1.2968,-1.3973 -1.2968 -1.3973c 0.0000,-0.5753 0.1918,-1.5434 0.1918 -1.5434l 1.2511,-6.3014 c 0.6575,-3.3059 2.4795,-5.1461 2.4795 -5.1461c 1.8219,-1.8402 4.4338,-1.8402 4.4338 -1.8402c 0.9132,-0.0000 1.6438,0.1918 1.6438 0.1918l -1.2511,1.3059 c -1.0594,-0.4840 -1.8265,-0.4840 -1.8265 -0.4840c -1.4521,-0.0000 -2.1826,1.0594 -2.1826 1.0594c -0.7306,1.0594 -1.3151,4.0091 -1.3151 4.0091l -1.4338,7.2146 c -0.2100,1.0502 -0.2100,1.3699 -0.2100 1.3699c 0.0000,0.5753 0.5388,0.5753 0.5388 0.5753c 0.6119,-0.0000 2.3653,-1.6256 2.3653 -1.6256c 0.1370,-0.1279 0.4840,-0.4292 0.4840 -0.4292ZM 235.4201,24.9589 ZM 245.2557,22.4658 l -0.1370,0.7032 c -2.9041,2.0183 -4.9498,2.0183 -4.9498 2.0183c -1.2968,-0.0000 -2.1050,-0.9087 -2.1050 -0.9087c -0.8082,-0.9087 -0.8082,-2.3516 -0.8082 -2.3516c 0.0000,-2.5753 1.9726,-4.8447 1.9726 -4.8447c 1.9726,-2.2694 4.2100,-2.2694 4.2100 -2.2694c 0.8128,-0.0000 1.3151,0.5479 1.3151 0.5479c 0.5023,0.5479 0.5023,1.4247 0.5023 1.4247c 0.0000,1.7534 -1.7900,3.0137 -1.7900 3.0137c -1.7900,1.2603 -4.2740,1.2603 -4.2740 1.2603l -0.0091,0.4110 c 0.0000,2.6667 1.9543,2.6667 1.9543 2.6667c 1.6895,-0.0000 4.1187,-1.6712 4.1187 -1.6712ZM 245.2557,22.4658 ZM 239.2100,20.4932 c 2.0457,-0.1644 3.1963,-1.0548 3.1963 -1.0548c 1.1507,-0.8904 1.1507,-2.3059 1.1507 -2.3059c 0.0000,-1.3973 -1.0137,-1.3973 -1.0137 -1.3973c -1.0959,-0.0000 -2.1187,1.4566 -2.1187 1.4566c -1.0228,1.4566 -1.2146,3.3014 -1.2146 3.3014ZM 251.7580,24.9589 ZM 252.8174,24.4475 l 1.2694,-1.2968 c 1.6804,1.3607 3.4795,1.3607 3.4795 1.3607c 1.2511,-0.0000 2.0457,-0.7078 2.0457 -0.7078c 0.7945,-0.7078 0.7945,-1.8219 0.7945 -1.8219c 0.0000,-1.0959 -1.4977,-2.4201 -1.4977 -2.4201l -1.2877,-1.1416 c -1.4338,-1.2603 -1.7763,-1.7717 -1.7763 -1.7717c -0.3425,-0.5114 -0.3425,-1.3699 -0.3425 -1.3699c 0.0000,-1.7078 1.4429,-2.9452 1.4429 -2.9452c 1.4429,-1.2374 3.4429,-1.2374 3.4429 -1.2374c 1.2694,-0.0000 2.9772,0.7580 2.9772 0.7580l -0.4566,2.2922 h -0.5753 c 0.0183,-0.2831 0.0183,-0.3927 0.0183 -0.3927c 0.0000,-0.8676 -0.6941,-1.3973 -0.6941 -1.3973c -0.6941,-0.5297 -1.8356,-0.5297 -1.8356 -0.5297c -1.1781,-0.0000 -1.9817,0.6986 -1.9817 0.6986c -0.8037,0.6986 -0.8037,1.7306 -0.8037 1.7306c 0.0000,0.6941 0.4064,1.2694 0.4064 1.2694c 0.4064,0.5753 1.6941,1.6712 1.6941 1.6712l 1.0776,0.9315 c 1.7991,1.5434 1.7991,2.8858 1.7991 2.8858c 0.0000,1.7626 -1.6895,3.0228 -1.6895 3.0228c -1.6895,1.2603 -4.0274,1.2603 -4.0274 1.2603c -1.7900,-0.0000 -3.4795,-0.8493 -3.4795 -0.8493ZM 262.6164,24.9589 ZM 267.2466,25.1872 c -1.1963,-0.0000 -1.9954,-0.9361 -1.9954 -0.9361c -0.7991,-0.9361 -0.7991,-2.3333 -0.7991 -2.3333c 0.0000,-2.6301 1.9909,-4.8630 1.9909 -4.8630c 1.9909,-2.2329 4.3379,-2.2329 4.3379 -2.2329c 1.2694,-0.0000 2.0913,0.9132 2.0913 0.9132c 0.8219,0.9132 0.8219,2.3288 0.8219 2.3288c 0.0000,2.7306 -1.9909,4.9269 -1.9909 4.9269c -1.9909,2.1963 -4.4566,2.1963 -4.4566 2.1963ZM 267.2466,25.1872 ZM 268.2877,24.3927 c 1.3516,-0.0000 2.3790,-1.7397 2.3790 -1.7397c 1.0274,-1.7397 1.0274,-4.0411 1.0274 -4.0411c 0.0000,-3.0228 -1.8447,-3.0228 -1.8447 -3.0228c -1.3059,-0.0000 -2.3516,1.7945 -2.3516 1.7945c -1.0457,1.7945 -1.0457,4.0411 -1.0457 4.0411c 0.0000,2.9680 1.8356,2.9680 1.8356 2.9680ZM 273.5114,24.9589 ZM 283.1735,20.0000 h -0.1553 c -2.5936,5.1872 -5.0594,5.1872 -5.0594 5.1872c -1.4612,-0.0000 -1.4612,-1.7260 -1.4612 -1.7260c 0.0000,-0.4932 0.1461,-1.2329 0.1461 -1.2329l 0.8858,-4.4840 c 0.2100,-1.0502 0.2100,-1.3699 0.2100 -1.3699c 0.0000,-0.5662 -0.5388,-0.5662 -0.5388 -0.5662c -0.8950,-0.0000 -2.7215,2.0000 -2.7215 2.0000l 0.1644,-0.8402 c 1.9909,-2.1461 3.5890,-2.1461 3.5890 -2.1461c 1.3242,-0.0000 1.3242,1.3699 1.3242 1.3699c 0.0000,0.4566 -0.2192,1.5525 -0.2192 1.5525l -0.8950,4.4932 c -0.1187,0.6027 -0.1187,0.8584 -0.1187 0.8584c 0.0000,0.7397 0.5388,0.7397 0.5388 0.7397c 0.6849,-0.0000 2.0776,-1.6575 2.0776 -1.6575c 1.3927,-1.6575 2.5616,-3.8584 2.5616 -3.8584l 0.6575,-3.2785 l 1.9361,-0.1096 l -0.6758,2.8128 l -0.8950,4.5114 c -0.2100,1.0502 -0.2100,1.3699 -0.2100 1.3699c 0.0000,0.5753 0.5388,0.5753 0.5388 0.5753c 0.9041,-0.0000 2.7215,-2.0091 2.7215 -2.0091l -0.1644,0.8493 c -2.0000,2.1461 -3.5890,2.1461 -3.5890 2.1461c -1.3242,-0.0000 -1.3242,-1.3790 -1.3242 -1.3790c 0.0000,-0.4658 0.2192,-1.5525 0.2192 -1.5525ZM 286.5525,24.9589 ZM 289.0091,25.0685 l 0.6758,-2.8128 l 0.8950,-4.5114 c 0.2100,-1.0502 0.2100,-1.3699 0.2100 -1.3699c 0.0000,-0.5662 -0.5388,-0.5662 -0.5388 -0.5662c -0.8950,-0.0000 -2.7215,2.0000 -2.7215 2.0000l 0.1644,-0.8402 c 1.9909,-2.1461 3.5890,-2.1461 3.5890 -2.1461c 1.3151,-0.0000 1.3151,1.3699 1.3151 1.3699c 0.0000,0.4658 -0.2100,1.5525 -0.2100 1.5525l -0.4475,2.2557 h 0.1370 c 1.1416,-2.3379 2.5799,-3.7580 2.5799 -3.7580c 1.4384,-1.4201 2.6804,-1.4201 2.6804 -1.4201c 1.4977,-0.0000 1.4977,1.6621 1.4977 1.6621c 0.0000,0.5388 -0.1553,1.3151 -0.1553 1.3151l -0.8858,4.4566 c -0.2100,1.0594 -0.2100,1.3699 -0.2100 1.3699c 0.0000,0.5753 0.5388,0.5753 0.5388 0.5753c 0.9132,-0.0000 2.7306,-2.0091 2.7306 -2.0091l -0.1735,0.8493 c -1.9909,2.1461 -3.5890,2.1461 -3.5890 2.1461c -1.3151,-0.0000 -1.3151,-1.3790 -1.3151 -1.3790c 0.0000,-0.4566 0.2192,-1.5525 0.2192 -1.5525l 0.8858,-4.4749 c 0.1096,-0.5205 0.1096,-0.8767 0.1096 -0.8767c 0.0000,-0.7397 -0.5479,-0.7397 -0.5479 -0.7397c -1.7443,-0.0000 -4.8402,5.5342 -4.8402 5.5342l -0.6667,3.2603 ZM 299.8493,24.9589 ZM 308.8356,20.0000 h -0.1644 c -1.0502,2.3014 -2.4932,3.7443 -2.4932 3.7443c -1.4429,1.4429 -2.7032,1.4429 -2.7032 1.4429c -1.9361,-0.0000 -1.9361,-2.4201 -1.9361 -2.4201c 0.0000,-1.6438 0.9452,-3.4429 0.9452 -3.4429c 0.9452,-1.7991 2.4429,-3.0228 2.4429 -3.0228c 1.0046,-0.8128 2.0091,-1.0913 2.0091 -1.0913c 1.0046,-0.2785 2.9132,-0.2785 2.9132 -0.2785c 0.5388,-1.8082 1.1233,-2.7626 1.1233 -2.7626c 0.5845,-0.9543 1.6438,-1.7854 1.6438 -1.7854c 1.8082,-1.4247 3.9909,-1.4247 3.9909 -1.4247c 0.9041,-0.0000 1.6438,0.1918 1.6438 0.1918l -1.2511,1.2968 c -1.0868,-0.4749 -1.8447,-0.4749 -1.8447 -0.4749c -1.4612,-0.0000 -2.2009,1.0639 -2.2009 1.0639c -0.7397,1.0639 -1.3242,3.9863 -1.3242 3.9863l -1.4338,7.2329 c -0.2192,1.0594 -0.2192,1.3516 -0.2192 1.3516c 0.0000,0.5936 0.5388,0.5936 0.5388 0.5936c 0.9132,-0.0000 2.7306,-2.0091 2.7306 -2.0091l -0.1735,0.8493 c -1.9909,2.1461 -3.5799,2.1461 -3.5799 2.1461c -1.3242,-0.0000 -1.3242,-1.3790 -1.3242 -1.3790c 0.0000,-0.4475 0.2192,-1.5525 0.2192 -1.5525ZM 308.8356,20.0000 ZM 309.5662,16.3470 c -1.1324,-0.5114 -2.2831,-0.5114 -2.2831 -0.5114c -1.6530,-0.0000 -2.6484,2.1005 -2.6484 2.1005c -1.1781,2.4840 -1.1781,4.4658 -1.1781 4.4658c 0.0000,1.4338 0.8493,1.4338 0.8493 1.4338c 0.7854,-0.0000 2.2603,-1.6530 2.2603 -1.6530c 1.4749,-1.6530 2.5890,-3.7717 2.5890 -3.7717ZM 318.5525,24.9589 ZM 320.4703,24.9589 l 1.3516,-1.3516 h 0.1553 c 1.3881,-0.0000 1.9132,-0.5753 1.9132 -0.5753c 0.5251,-0.5753 0.9087,-2.5297 0.9087 -2.5297l 1.6621,-8.3470 c -1.8813,-0.0000 -3.0411,1.0091 -3.0411 1.0091c -1.1598,1.0091 -1.1598,2.6347 -1.1598 2.6347v 0.2009 l -1.7717,0.8584 c 0.2283,-2.7671 2.1735,-4.0913 2.1735 -4.0913c 1.9452,-1.3242 5.7626,-1.3242 5.7626 -1.3242h 5.3699 l -0.8128,2.5845 h -0.5753 c 0.0731,-0.3562 0.0731,-0.6393 0.0731 -0.6393c 0.0000,-0.7215 -0.8265,-0.9954 -0.8265 -0.9954c -0.8265,-0.2740 -3.0091,-0.2740 -3.0091 -0.2740h -0.2831 l -1.0594,5.4064 h 4.0731 l -0.9315,0.9406 c -2.0731,-0.2648 -2.8219,-0.2648 -2.8219 -0.2648h -0.4566 l -0.1918,0.9863 c -0.3196,1.6621 -0.9726,2.6347 -0.9726 2.6347c -0.6530,0.9726 -2.0959,1.9315 -2.0959 1.9315l 4.3836,0.1735 l 0.9589,0.0274 c 1.4886,-0.0000 2.7854,-1.0320 2.7854 -1.0320l -0.1461,0.7397 c -1.6164,1.6347 -3.0411,1.6347 -3.0411 1.6347l -0.4201,-0.0091 ZM 332.3059,24.9589 ZM 328.4155,30.9224 l 1.3059,-1.3607 c 0.8767,0.3562 1.7900,0.3562 1.7900 0.3562c 1.3059,-0.0000 2.0137,-0.8858 2.0137 -0.8858c 0.7078,-0.8858 1.0548,-2.9315 1.0548 -2.9315l 1.7534,-10.3836 h -2.0457 l 0.6393,-0.6758 h 1.5434 l 0.0274,-0.1187 c 0.5205,-2.6484 2.4018,-4.3059 2.4018 -4.3059c 1.8813,-1.6575 4.3653,-1.6575 4.3653 -1.6575c 0.7945,-0.0000 1.4703,0.1553 1.4703 0.1553l -1.3059,1.3881 c -0.8493,-0.5297 -1.7443,-0.5297 -1.7443 -0.5297c -1.3699,-0.0000 -2.0365,0.8082 -2.0365 0.8082c -0.6667,0.8082 -1.0959,2.9635 -1.0959 2.9635l -0.2648,1.2968 h 3.4155 l -0.7397,0.8128 c -1.1598,-0.1370 -2.3288,-0.1370 -2.3288 -0.1370h -0.4749 l -1.3333,7.8539 c -0.6027,3.5799 -2.4018,5.5251 -2.4018 5.5251c -1.7991,1.9452 -4.5114,1.9452 -4.5114 1.9452c -0.7123,-0.0000 -1.4977,-0.1187 -1.4977 -0.1187ZM 339.9498,24.9589 ZM 336.0594,30.9224 l 1.3059,-1.3607 c 0.8767,0.3562 1.7900,0.3562 1.7900 0.3562c 1.3059,-0.0000 2.0137,-0.8858 2.0137 -0.8858c 0.7078,-0.8858 1.0548,-2.9315 1.0548 -2.9315l 1.7534,-10.3836 h -2.0457 l 0.6393,-0.6758 h 1.5434 l 0.0274,-0.1187 c 0.5205,-2.6484 2.4018,-4.3059 2.4018 -4.3059c 1.8813,-1.6575 4.3653,-1.6575 4.3653 -1.6575c 0.7945,-0.0000 1.4703,0.1553 1.4703 0.1553l -1.3059,1.3881 c -0.8493,-0.5297 -1.7443,-0.5297 -1.7443 -0.5297c -1.3699,-0.0000 -2.0365,0.8082 -2.0365 0.8082c -0.6667,0.8082 -1.0959,2.9635 -1.0959 2.9635l -0.2648,1.2968 h 3.4155 l -0.7397,0.8128 c -1.1598,-0.1370 -2.3288,-0.1370 -2.3288 -0.1370h -0.4749 l -1.3333,7.8539 c -0.6027,3.5799 -2.4018,5.5251 -2.4018 5.5251c -1.7991,1.9452 -4.5114,1.9452 -4.5114 1.9452c -0.7123,-0.0000 -1.4977,-0.1187 -1.4977 -0.1187ZM 347.5936,24.9589 ZM 357.4292,22.4658 l -0.1370,0.7032 c -2.9041,2.0183 -4.9498,2.0183 -4.9498 2.0183c -1.2968,-0.0000 -2.1050,-0.9087 -2.1050 -0.9087c -0.8082,-0.9087 -0.8082,-2.3516 -0.8082 -2.3516c 0.0000,-2.5753 1.9726,-4.8447 1.9726 -4.8447c 1.9726,-2.2694 4.2100,-2.2694 4.2100 -2.2694c 0.8128,-0.0000 1.3151,0.5479 1.3151 0.5479c 0.5023,0.5479 0.5023,1.4247 0.5023 1.4247c 0.0000,1.7534 -1.7900,3.0137 -1.7900 3.0137c -1.7900,1.2603 -4.2740,1.2603 -4.2740 1.2603l -0.0091,0.4110 c 0.0000,2.6667 1.9543,2.6667 1.9543 2.6667c 1.6895,-0.0000 4.1187,-1.6712 4.1187 -1.6712ZM 357.4292,22.4658 ZM 351.3836,20.4932 c 2.0457,-0.1644 3.1963,-1.0548 3.1963 -1.0548c 1.1507,-0.8904 1.1507,-2.3059 1.1507 -2.3059c 0.0000,-1.3973 -1.0137,-1.3973 -1.0137 -1.3973c -1.0959,-0.0000 -2.1187,1.4566 -2.1187 1.4566c -1.0228,1.4566 -1.2146,3.3014 -1.2146 3.3014ZM 357.7215,24.9589 ZM 367.5388,22.4475 l -0.1370,0.7123 c -2.9954,2.0274 -4.9132,2.0274 -4.9132 2.0274c -1.3242,-0.0000 -2.1279,-0.8950 -2.1279 -0.8950c -0.8037,-0.8950 -0.8037,-2.3653 -0.8037 -2.3653c 0.0000,-2.6575 2.0091,-4.8813 2.0091 -4.8813c 2.0091,-2.2237 4.4201,-2.2237 4.4201 -2.2237c 1.0594,-0.0000 2.1096,0.4658 2.1096 0.4658l -0.6119,2.3470 h -0.5662 l 0.0274,-0.1370 c 0.0913,-0.4292 0.0913,-0.6301 0.0913 -0.6301c 0.0000,-1.2603 -1.7078,-1.2603 -1.7078 -1.2603c -1.6073,-0.0000 -2.6758,1.7169 -2.6758 1.7169c -1.0685,1.7169 -1.0685,4.3105 -1.0685 4.3105c 0.0000,2.4749 1.8447,2.4749 1.8447 2.4749c 1.7534,-0.0000 4.1096,-1.6621 4.1096 -1.6621ZM 367.9406,24.9589 ZM 372.0959,15.7169 h -2.0913 l 0.6301,-0.6758 h 1.5890 l 0.5205,-2.5845 l 1.8904,-0.4566 l -0.6027,3.0411 h 3.4429 l -0.7489,0.8037 c -1.1781,-0.1279 -2.0913,-0.1279 -2.0913 -0.1279h -0.7397 l -1.2420,6.2557 c -0.1918,0.9680 -0.1918,1.3607 -0.1918 1.3607c 0.0000,0.7215 0.6393,0.7215 0.6393 0.7215c 0.9863,-0.0000 2.6941,-1.4612 2.6941 -1.4612l -0.1644,0.8402 c -1.7717,1.7534 -3.4064,1.7534 -3.4064 1.7534c -1.5525,-0.0000 -1.5525,-1.7169 -1.5525 -1.7169c 0.0000,-0.6119 0.2009,-1.6256 0.2009 -1.6256ZM 376.4612,24.9589 ZM 377.0913,24.6484 l 1.1963,-1.2329 c 1.1872,0.8676 2.4201,0.8676 2.4201 0.8676c 0.7580,-0.0000 1.2785,-0.3973 1.2785 -0.3973c 0.5205,-0.3973 0.5205,-0.9817 0.5205 -0.9817c 0.0000,-0.6484 -1.0320,-1.7717 -1.0320 -1.7717l -0.8311,-0.9132 c -1.2146,-1.3333 -1.2146,-2.2283 -1.2146 -2.2283c 0.0000,-1.2420 1.1781,-2.2055 1.1781 -2.2055c 1.1781,-0.9635 2.6941,-0.9635 2.6941 -0.9635c 0.8311,-0.0000 1.8630,0.3470 1.8630 0.3470l -0.4018,2.0183 h -0.5753 l 0.0274,-0.1553 c 0.0183,-0.0822 0.0183,-0.1918 0.0183 -0.1918c 0.0000,-1.2329 -1.5890,-1.2329 -1.5890 -1.2329c -1.7808,-0.0000 -1.7808,1.4247 -1.7808 1.4247c 0.0000,0.7215 1.0594,1.9178 1.0594 1.9178l 0.7489,0.8311 c 1.2237,1.3790 1.2237,2.2648 1.2237 2.2648c 0.0000,1.2237 -1.2968,2.1826 -1.2968 2.1826c -1.2968,0.9589 -2.9498,0.9589 -2.9498 0.9589c -1.1598,-0.0000 -2.5571,-0.5388 -2.5571 -0.5388ZM 391.1096,24.9589 ZM 398.0959,25.2968 c -2.2466,-0.0000 -3.5571,-1.3973 -3.5571 -1.3973c -1.3105,-1.3973 -1.3105,-3.7900 -1.3105 -3.7900c 0.0000,-3.5890 2.4703,-6.3014 2.4703 -6.3014c 2.4703,-2.7123 5.7397,-2.7123 5.7397 -2.7123c 2.2283,-0.0000 3.5297,1.3744 3.5297 1.3744c 1.3014,1.3744 1.3014,3.7306 1.3014 3.7306c 0.0000,3.7443 -2.4064,6.4201 -2.4064 6.4201c -2.4064,2.6758 -5.7671,2.6758 -5.7671 2.6758ZM 398.0959,25.2968 ZM 398.4521,24.6758 c 2.3744,-0.0000 4.0731,-2.5114 4.0731 -2.5114c 1.6986,-2.5114 1.6986,-6.0274 1.6986 -6.0274c 0.0000,-4.4566 -3.0959,-4.4566 -3.0959 -4.4566c -2.3744,-0.0000 -4.0822,2.4840 -4.0822 2.4840c -1.7078,2.4840 -1.7078,5.9543 -1.7078 5.9543c 0.0000,4.5571 3.1142,4.5571 3.1142 4.5571ZM 405.7580,24.9589 ZM 408.2146,25.0685 l 0.6758,-2.8128 l 0.8950,-4.5114 c 0.2100,-1.0502 0.2100,-1.3699 0.2100 -1.3699c 0.0000,-0.5662 -0.5388,-0.5662 -0.5388 -0.5662c -0.8950,-0.0000 -2.7215,2.0000 -2.7215 2.0000l 0.1644,-0.8402 c 1.9909,-2.1461 3.5890,-2.1461 3.5890 -2.1461c 1.3151,-0.0000 1.3151,1.3699 1.3151 1.3699c 0.0000,0.4658 -0.2100,1.5525 -0.2100 1.5525l -0.4475,2.2557 h 0.1370 c 1.1416,-2.3379 2.5799,-3.7580 2.5799 -3.7580c 1.4384,-1.4201 2.6804,-1.4201 2.6804 -1.4201c 1.4977,-0.0000 1.4977,1.6621 1.4977 1.6621c 0.0000,0.5388 -0.1553,1.3151 -0.1553 1.3151l -0.8858,4.4566 c -0.2100,1.0594 -0.2100,1.3699 -0.2100 1.3699c 0.0000,0.5753 0.5388,0.5753 0.5388 0.5753c 0.9132,-0.0000 2.7306,-2.0091 2.7306 -2.0091l -0.1735,0.8493 c -1.9909,2.1461 -3.5890,2.1461 -3.5890 2.1461c -1.3151,-0.0000 -1.3151,-1.3790 -1.3151 -1.3790c 0.0000,-0.4566 0.2192,-1.5525 0.2192 -1.5525l 0.8858,-4.4749 c 0.1096,-0.5205 0.1096,-0.8767 0.1096 -0.8767c 0.0000,-0.7397 -0.5479,-0.7397 -0.5479 -0.7397c -1.7443,-0.0000 -4.8402,5.5342 -4.8402 5.5342l -0.6667,3.2603 Z"/>
  </g>
</svg>